{"glyphs":{"0":{"ha":475,"x_min":40,"x_max":436,"o":"m 381 317 q 393 376 393 354 q 392 381 393 379 l 390 382 q 375 340 388 382 q 324 226 347 257 q 318 213 311 213 q 352 253 328 213 q 381 317 376 293 m 90 371 q 79 393 89 382 l 90 349 q 119 261 107 286 q 157 206 131 236 q 208 176 183 176 l 210 176 q 207 183 217 178 l 201 186 q 160 219 185 194 q 126 263 136 244 q 105 320 119 278 q 90 371 90 363 m 317 721 q 308 737 317 728 q 292 746 299 746 q 260 728 274 746 q 242 679 247 710 q 239 607 239 665 q 242 540 239 550 q 247 530 243 532 q 256 531 250 528 q 271 543 261 533 q 283 564 283 556 q 279 592 283 571 q 275 601 276 600 q 263 600 274 601 q 247 607 250 597 q 247 611 247 608 l 246 614 q 265 632 246 632 q 290 615 282 632 q 301 554 301 593 l 301 546 q 274 511 297 529 q 236 493 251 493 q 216 515 221 493 q 211 606 211 536 q 228 726 211 688 q 286 775 244 764 q 296 776 290 776 q 332 746 315 776 q 349 704 342 728 q 354 619 354 688 q 350 539 354 561 q 315 417 335 453 q 310 399 310 406 q 299 379 311 394 q 274 354 286 364 q 213 328 242 328 q 183 353 204 328 q 151 397 161 378 q 128 550 128 447 q 128 567 128 556 q 129 583 129 578 q 152 708 132 636 q 192 807 172 781 q 207 836 193 810 q 264 896 228 878 q 293 903 281 903 q 334 890 315 903 q 360 858 353 876 q 375 811 363 849 q 392 765 388 774 q 397 744 393 763 q 404 711 400 726 q 411 696 408 696 l 413 696 q 409 731 414 697 q 400 776 404 764 q 301 938 372 892 q 260 951 282 951 q 179 915 211 951 q 165 893 175 910 q 149 862 156 876 q 143 847 142 847 q 142 843 144 847 q 138 832 140 839 q 83 642 108 776 q 76 557 76 607 q 85 486 76 511 q 106 417 94 454 q 147 281 135 304 q 176 244 154 267 q 214 214 199 222 q 243 207 231 204 q 287 229 269 213 q 324 286 304 246 q 379 439 347 339 q 382 465 382 446 q 390 519 382 478 q 396 563 396 556 q 389 657 396 569 q 369 754 385 719 q 361 778 364 767 q 333 853 343 839 q 289 875 318 875 q 214 800 250 875 q 158 619 181 731 q 157 578 157 613 q 163 460 157 494 q 184 401 167 429 q 219 369 201 374 l 222 369 q 250 381 232 369 q 275 401 268 392 q 325 525 310 447 q 333 626 333 561 q 324 713 333 700 q 317 721 317 719 m 436 665 q 431 591 436 643 q 425 518 425 539 q 411 340 422 410 q 368 230 399 279 q 294 161 338 181 q 219 144 257 144 q 176 153 193 144 q 135 187 160 161 q 100 231 110 213 q 43 435 68 293 q 40 500 40 460 q 49 660 40 601 q 92 890 71 849 q 103 901 96 899 q 114 897 111 903 q 113 881 115 896 q 99 814 99 828 q 102 807 99 808 q 106 811 106 806 q 106 817 107 813 q 115 847 104 825 q 171 943 161 933 q 260 979 207 979 q 310 967 285 979 q 371 906 340 950 q 413 818 401 861 q 436 665 436 733 z "},"1":{"ha":229,"x_min":43,"x_max":190,"o":"m 171 963 q 178 729 171 867 q 185 486 185 592 q 189 250 185 308 q 190 199 190 226 q 188 176 190 178 q 182 161 182 174 q 178 151 182 154 q 169 149 175 147 q 158 157 164 150 q 146 264 149 168 q 142 444 142 368 q 143 543 142 507 l 143 576 q 138 706 143 622 q 131 819 132 790 q 125 886 128 886 q 110 846 122 886 q 57 765 86 765 q 50 767 53 765 q 43 776 43 769 q 64 829 43 788 q 92 895 78 858 q 106 938 107 932 q 115 976 106 942 q 126 1042 119 990 q 140 1108 133 1094 q 156 1115 149 1121 q 163 1103 163 1111 q 167 1096 163 1096 q 171 963 171 1096 z "},"2":{"ha":690,"x_min":43,"x_max":649,"o":"m 253 358 q 178 368 229 368 q 136 364 149 368 q 85 331 94 347 q 81 310 81 322 q 97 265 81 286 q 133 243 113 243 q 232 306 167 243 q 274 349 274 347 q 253 358 274 350 m 338 363 q 369 328 338 361 q 401 293 401 294 q 426 264 401 292 q 451 240 444 244 q 478 235 458 236 l 486 235 q 613 333 564 235 q 635 361 628 361 q 649 336 649 361 q 638 296 649 315 q 628 275 628 276 q 604 239 626 263 q 561 203 582 215 q 485 185 533 185 l 472 185 q 392 235 429 189 q 343 289 385 243 q 315 322 315 317 q 303 322 315 332 l 294 313 q 247 263 286 297 q 185 217 208 229 q 139 204 160 204 q 51 282 81 204 q 43 313 43 306 q 49 336 43 314 q 99 395 60 372 q 192 418 138 418 q 254 408 233 418 q 271 401 264 404 q 278 400 278 399 l 281 400 q 285 399 282 400 q 292 396 289 397 q 314 400 304 389 q 324 414 324 410 q 340 442 324 417 q 472 663 422 568 q 506 749 508 736 q 513 778 506 754 q 526 872 526 821 q 513 964 526 921 q 466 1017 503 997 q 383 1038 429 1038 q 288 1013 329 1038 q 254 997 260 997 q 244 1006 247 997 l 244 1008 l 243 1011 q 276 1050 243 1031 q 301 1065 299 1063 q 342 1083 311 1078 q 382 1085 347 1085 l 404 1085 q 479 1065 451 1082 q 518 1035 511 1047 q 550 972 542 996 q 565 874 565 924 q 558 807 565 842 q 490 618 535 694 q 390 444 390 451 q 357 392 390 438 q 338 363 338 367 z "},"3":{"ha":529,"x_min":43,"x_max":490,"o":"m 153 963 q 112 947 149 963 q 60 931 75 931 q 43 946 43 931 q 83 976 43 956 q 147 1003 119 997 q 170 1010 161 1006 q 188 1017 179 1015 q 210 1019 204 1019 q 243 1013 222 1019 q 308 958 279 999 q 343 869 338 917 q 344 842 344 854 q 342 821 344 831 q 290 749 339 794 q 265 724 265 726 q 278 721 265 721 q 381 693 319 721 q 435 651 407 681 q 485 563 474 611 q 490 488 490 539 q 482 400 490 425 q 410 276 460 329 q 333 215 365 231 q 253 199 301 199 q 221 200 232 199 q 125 212 149 204 q 92 242 101 219 q 86 263 86 256 q 100 286 86 286 q 110 275 107 286 q 218 236 115 236 l 244 236 q 326 251 299 238 q 383 295 351 264 q 428 351 414 326 q 458 471 458 407 l 458 485 q 448 570 457 543 q 411 622 439 597 q 263 676 349 676 q 196 665 229 676 q 160 656 168 656 q 153 663 153 656 q 159 678 153 671 q 188 700 165 685 q 289 790 254 744 q 306 814 306 813 q 310 835 306 819 q 313 853 313 846 q 296 910 313 876 q 243 967 274 953 q 211 978 218 978 q 190 975 207 978 q 160 967 161 969 q 153 963 156 963 z "},"4":{"ha":568,"x_min":43,"x_max":526,"o":"m 126 1039 q 135 1040 129 1040 q 146 1003 144 1040 l 146 983 q 141 933 146 963 q 135 885 136 904 q 132 853 133 863 q 130 838 131 843 q 126 820 129 833 q 118 786 122 807 q 94 685 118 785 q 92 674 93 681 q 89 662 90 667 q 88 656 88 657 l 86 654 l 86 653 q 101 649 86 649 q 115 649 104 649 q 133 650 125 650 q 231 653 208 653 q 336 650 250 653 l 414 647 l 414 664 q 410 706 414 686 q 400 888 400 751 q 403 929 400 926 q 418 935 408 936 q 429 926 428 933 q 440 807 440 893 q 447 714 440 756 q 463 649 456 653 q 472 647 467 647 q 481 648 475 647 q 492 649 488 649 q 522 649 518 650 q 526 635 526 647 q 486 603 526 607 q 460 594 460 600 q 467 515 460 578 q 479 399 474 442 q 492 272 492 292 q 497 235 492 240 q 500 225 500 232 q 490 195 500 211 q 471 179 481 179 l 468 179 q 453 265 454 183 q 440 390 453 293 q 431 489 439 406 q 415 601 417 601 q 169 606 401 606 q 51 610 60 606 q 43 624 43 614 q 51 651 43 633 q 72 732 54 657 q 101 878 99 832 q 126 1039 113 1035 z "},"5":{"ha":549,"x_min":43,"x_max":510,"o":"m 65 964 q 72 1006 65 999 q 92 1013 79 1013 q 138 1006 110 1013 q 197 1000 168 1000 q 293 1010 247 1000 q 311 1011 299 1011 q 351 992 347 1011 q 347 982 353 982 q 329 972 339 982 q 240 954 307 954 q 223 955 235 954 q 204 956 211 956 q 125 964 143 958 q 104 964 108 968 q 97 903 101 961 q 93 813 93 846 q 94 796 93 797 q 97 794 96 794 q 132 815 108 794 q 201 835 153 835 q 354 781 293 835 q 383 758 379 758 q 394 750 386 758 q 405 737 396 749 q 419 718 414 725 q 494 578 468 661 q 510 483 510 533 q 476 319 510 400 q 436 231 451 256 q 397 194 421 207 q 311 171 378 182 q 249 165 278 165 q 122 204 196 165 q 58 241 74 229 q 43 263 43 253 q 53 276 43 274 q 71 272 64 279 q 124 236 86 257 q 190 206 161 215 q 225 203 197 203 q 368 225 326 203 q 428 303 404 244 q 440 331 431 311 q 451 357 449 351 q 458 378 453 363 q 466 406 464 394 q 471 435 468 417 q 475 475 474 453 q 476 485 475 479 q 476 494 476 492 q 451 582 476 526 q 439 610 439 604 q 403 672 439 618 q 358 718 396 685 q 299 764 321 751 q 204 790 253 790 q 189 785 189 790 q 176 781 189 781 q 101 739 147 781 q 68 714 72 714 q 63 717 65 714 q 57 749 57 721 q 58 815 57 783 q 63 918 61 911 q 65 964 65 932 z "},"6":{"ha":572,"x_min":42,"x_max":535,"o":"m 276 988 q 328 994 276 994 l 360 994 q 421 985 410 994 q 425 963 431 975 q 406 954 419 951 q 354 960 378 960 q 275 947 328 960 q 135 829 189 928 q 74 599 74 714 q 104 436 74 514 q 153 339 140 339 q 176 317 154 339 q 252 266 203 289 q 333 243 301 243 q 476 333 431 243 q 501 497 501 383 q 485 607 501 578 q 461 639 464 635 q 407 676 444 663 q 331 690 369 690 q 274 679 294 690 q 254 676 268 676 q 197 642 232 676 q 142 565 161 607 q 117 531 125 531 q 107 540 111 531 q 106 549 106 543 q 143 624 106 575 q 217 693 181 672 q 331 724 269 724 q 414 706 369 724 q 482 661 458 688 q 531 531 519 619 q 535 465 535 497 q 507 307 535 367 q 468 257 497 286 q 418 218 439 228 q 339 201 381 201 q 314 204 328 201 q 285 207 289 210 q 281 208 281 206 q 276 211 281 214 l 275 211 q 231 229 268 211 q 181 257 193 247 q 126 310 142 290 q 75 409 101 343 q 43 521 49 475 q 42 563 42 532 q 51 701 42 650 q 57 735 57 726 q 61 744 57 740 q 74 775 64 747 q 87 806 81 793 q 102 834 93 818 q 118 864 111 850 q 183 940 136 901 q 260 982 229 978 q 276 988 276 985 z "},"7":{"ha":551,"x_min":42,"x_max":518,"o":"m 375 576 q 363 542 363 547 q 360 529 363 529 q 357 522 357 529 q 340 431 357 511 q 306 242 317 329 q 281 185 299 185 q 271 190 276 185 q 266 209 267 194 q 269 231 265 224 q 284 304 274 244 q 297 374 294 364 q 319 456 300 397 q 339 571 339 514 q 275 576 339 576 q 201 582 213 576 q 192 596 193 586 q 200 610 192 606 q 279 614 213 614 q 354 615 353 614 q 363 639 357 618 q 372 677 367 657 q 383 717 378 697 q 394 769 389 738 q 407 824 403 811 q 420 899 413 839 q 428 975 428 960 q 397 972 425 979 q 203 924 374 965 q 154 913 169 915 q 122 904 122 906 q 158 864 122 897 q 196 815 196 826 q 192 807 196 811 q 161 821 179 794 q 113 872 143 847 q 67 897 82 897 q 44 915 56 897 q 50 928 42 922 q 75 936 58 935 q 171 954 158 946 q 207 963 179 958 q 292 981 229 965 q 364 999 356 997 q 402 1008 367 999 q 450 1018 438 1018 l 460 1017 l 458 972 q 401 656 449 806 q 394 626 394 632 q 429 617 394 617 l 439 617 q 497 610 485 617 q 506 583 518 596 q 436 576 499 576 l 375 576 z "},"8":{"ha":533,"x_min":40,"x_max":494,"o":"m 402 581 q 391 592 402 581 q 364 611 381 604 q 339 618 347 618 q 306 610 310 615 q 271 607 304 607 q 217 608 235 607 q 199 610 210 610 q 158 597 183 610 q 110 564 126 582 q 79 508 83 535 q 72 478 75 486 q 69 460 69 469 q 89 382 69 424 q 125 331 99 364 q 157 299 151 299 q 164 293 158 299 q 171 288 169 288 q 192 276 176 288 q 314 232 261 232 l 325 232 q 379 251 350 235 q 425 288 408 268 q 458 339 451 318 q 464 413 464 360 q 453 494 464 469 q 432 538 439 521 q 402 581 424 557 m 346 997 q 299 1014 319 1014 q 286 1010 290 1014 q 243 1001 283 1003 q 136 972 175 999 q 114 947 126 965 q 100 918 101 929 q 98 910 100 917 q 94 899 96 903 q 85 844 85 875 q 147 700 85 763 q 239 653 194 653 l 242 653 q 260 653 246 653 q 282 654 275 654 q 326 663 308 654 q 369 693 343 669 q 408 735 396 717 q 440 844 440 783 q 432 892 440 871 q 395 951 421 919 q 346 997 369 983 m 258 1043 q 293 1047 263 1047 q 346 1033 322 1047 q 397 993 367 1022 q 431 953 428 964 q 435 943 433 943 q 452 917 440 943 q 467 872 464 890 q 469 838 469 856 q 469 823 469 832 q 468 810 468 814 q 404 676 464 736 l 376 649 l 411 613 q 428 595 421 603 q 440 579 435 588 q 449 566 446 571 q 458 551 453 561 q 465 535 463 540 q 472 517 467 531 q 481 496 478 503 q 494 400 494 464 q 492 341 494 353 q 479 306 490 329 q 318 190 428 203 q 300 189 311 189 q 260 195 281 189 q 228 208 240 201 q 197 227 217 214 q 169 244 176 240 q 126 279 156 251 q 79 329 96 307 q 40 458 40 381 q 54 529 40 500 q 139 626 89 601 l 160 636 l 129 665 q 51 832 68 725 q 50 854 50 840 q 72 933 50 885 q 119 997 93 981 q 222 1035 163 1025 q 258 1043 256 1040 z "},"9":{"ha":458,"x_min":40,"x_max":421,"o":"m 138 633 q 133 642 142 633 q 138 633 129 642 m 314 931 q 222 972 267 972 q 203 969 217 972 q 176 959 185 964 q 158 945 168 954 q 138 929 147 936 q 101 894 115 917 q 86 864 86 871 q 92 857 86 858 q 86 825 106 853 q 74 788 74 807 q 78 768 74 768 q 85 751 81 768 q 108 712 89 736 q 147 674 128 688 q 246 639 192 643 q 271 638 257 638 q 300 644 283 638 q 337 675 319 654 q 356 714 354 696 q 360 753 360 736 q 354 818 360 760 q 342 890 349 869 q 314 931 335 911 m 382 318 q 377 458 382 396 q 372 581 372 519 q 372 621 372 603 q 369 649 371 639 l 369 658 l 349 638 q 289 597 333 621 q 217 576 247 576 q 112 617 158 576 q 53 719 65 658 q 48 735 50 728 q 44 747 46 743 q 42 756 43 750 q 41 770 42 761 q 40 793 40 779 q 54 867 40 838 q 79 913 71 900 q 105 941 88 925 q 128 957 122 957 q 140 965 132 957 q 167 983 147 972 q 229 993 186 993 q 269 991 260 993 q 296 978 278 989 q 353 926 336 954 q 376 842 376 889 q 382 813 376 813 q 393 819 386 813 q 410 826 406 831 q 414 793 414 822 q 408 717 414 756 q 404 567 404 683 q 407 447 404 506 q 409 390 407 438 q 413 315 411 343 q 418 213 415 222 q 413 196 421 207 q 400 185 406 185 q 385 202 388 185 q 382 318 383 219 z "},"\u0000":{"ha":403,"x_min":0,"x_max":0,"o":""},"\r":{"ha":403,"x_min":0,"x_max":0,"o":""}," ":{"ha":403,"x_min":0,"x_max":0,"o":""},"!":{"ha":231,"x_min":40,"x_max":189,"o":"m 132 969 q 151 976 147 978 q 156 961 156 975 q 149 875 156 938 q 143 749 143 813 l 143 685 q 149 510 146 581 q 153 375 153 439 q 144 265 153 278 q 138 261 142 261 q 123 271 131 261 q 115 290 115 281 q 110 326 115 296 q 93 443 96 396 q 89 460 93 456 q 75 533 83 463 q 63 683 64 618 q 53 805 63 729 q 42 917 44 881 q 44 938 40 933 q 58 943 47 943 q 132 969 79 943 m 138 203 q 167 231 151 231 q 178 228 169 231 q 189 203 189 224 q 188 186 189 192 q 154 72 174 122 l 136 86 q 76 150 104 110 q 65 188 64 167 q 90 221 67 221 q 115 203 99 221 l 131 186 l 138 203 z "},"\"":{"ha":422,"x_min":40,"x_max":382,"o":"m 125 899 q 160 925 151 925 q 165 924 164 925 q 175 914 175 919 q 153 885 175 910 q 116 828 139 868 q 93 781 93 789 q 117 779 93 776 l 129 779 q 149 774 144 779 q 154 753 154 768 l 154 739 q 146 697 151 713 q 121 676 142 688 q 88 664 100 664 q 62 673 75 664 q 44 693 49 682 q 40 715 40 706 q 68 804 40 736 q 125 899 96 869 m 356 904 q 382 901 382 925 q 350 857 382 889 q 296 794 319 826 q 272 750 272 761 q 275 746 272 746 q 286 750 278 746 q 310 756 293 756 q 336 749 326 756 q 344 728 344 742 q 330 684 344 710 q 307 651 315 658 q 281 644 297 644 q 257 650 268 644 q 241 674 249 654 q 233 713 233 694 q 234 717 233 714 q 235 722 235 721 q 274 818 240 768 q 356 904 308 868 z "},"„":{"ha":422,"x_min":40,"x_max":382,"o":"m 125 899 q 160 925 151 925 q 165 924 164 925 q 175 914 175 919 q 153 885 175 910 q 116 828 139 868 q 93 781 93 789 q 117 779 93 776 l 129 779 q 149 774 144 779 q 154 753 154 768 l 154 739 q 146 697 151 713 q 121 676 142 688 q 88 664 100 664 q 62 673 75 664 q 44 693 49 682 q 40 715 40 706 q 68 804 40 736 q 125 899 96 869 m 356 904 q 382 901 382 925 q 350 857 382 889 q 296 794 319 826 q 272 750 272 761 q 275 746 272 746 q 286 750 278 746 q 310 756 293 756 q 336 749 326 756 q 344 728 344 742 q 330 684 344 710 q 307 651 315 658 q 281 644 297 644 q 257 650 268 644 q 241 674 249 654 q 233 713 233 694 q 234 717 233 714 q 235 722 235 721 q 274 818 240 768 q 356 904 308 868 z "},"#":{"ha":867,"x_min":43,"x_max":824,"o":"m 582 589 q 579 599 582 597 q 561 600 576 600 q 479 589 529 599 q 365 581 436 583 q 279 576 282 578 q 271 558 274 574 q 259 520 268 544 q 247 482 250 496 q 224 361 224 365 l 221 332 l 296 335 q 323 335 306 335 q 347 336 340 336 q 439 331 393 336 q 513 324 492 324 l 515 324 q 531 358 524 325 q 578 561 569 535 q 582 589 582 574 m 293 814 q 315 826 301 831 q 321 818 321 825 q 290 649 321 767 q 288 632 288 635 q 324 622 288 622 l 368 622 q 493 629 449 622 q 563 639 533 636 q 603 661 603 643 q 620 735 603 668 q 642 815 638 803 q 658 825 647 826 q 669 822 667 824 q 669 808 671 819 q 654 726 669 792 q 639 649 639 660 l 640 644 q 750 633 647 638 q 824 618 824 632 q 818 601 824 615 l 811 586 l 739 589 q 644 594 675 592 l 622 597 l 617 572 q 590 460 611 540 q 563 340 569 381 l 563 325 l 667 322 l 769 321 l 771 307 q 758 285 772 289 q 657 281 743 282 q 551 276 553 281 q 539 219 546 271 q 507 124 525 133 q 497 121 499 121 q 486 139 486 121 q 492 169 486 150 q 514 274 510 224 q 479 285 514 282 q 475 285 476 285 q 257 290 400 290 q 211 289 213 290 q 201 226 208 286 q 192 163 193 165 q 164 132 182 132 q 153 154 153 132 q 157 188 153 167 q 172 278 172 256 q 172 281 172 279 l 171 283 q 132 289 168 289 q 47 308 56 289 q 43 321 43 317 q 115 332 43 332 q 181 335 181 332 q 197 415 181 342 q 224 526 213 489 l 235 568 q 157 574 235 574 q 68 581 81 574 q 56 598 58 588 q 61 613 54 608 q 156 615 67 615 l 244 615 q 278 754 254 642 q 293 814 283 792 z "},"$":{"ha":642,"x_min":40,"x_max":603,"o":"m 356 633 q 317 639 329 639 q 304 635 306 639 l 304 632 q 303 624 304 629 q 303 612 303 618 q 303 597 303 606 q 303 578 303 588 q 303 519 303 564 q 304 449 304 475 l 304 267 l 338 268 q 465 304 408 272 q 544 371 531 340 q 557 422 557 396 q 531 510 557 457 q 457 589 508 554 q 356 633 406 624 m 256 856 l 251 901 l 242 901 q 136 860 171 899 q 102 802 115 836 q 89 743 89 768 q 92 725 89 729 q 129 699 97 715 q 165 683 154 686 q 207 679 175 681 l 221 679 q 256 682 250 679 q 267 746 267 693 q 265 775 267 767 q 256 856 261 800 m 260 1061 q 279 1067 271 1067 l 289 1067 l 293 1006 l 296 946 l 336 943 q 396 926 375 940 q 421 890 421 910 q 418 878 421 886 q 409 868 415 869 q 400 872 403 867 q 382 883 396 878 q 348 891 368 888 q 321 897 328 894 l 301 900 q 300 882 300 899 q 306 738 300 850 l 308 686 l 319 686 q 458 653 349 686 q 535 603 493 643 q 575 559 565 572 q 594 518 585 546 q 603 471 603 493 l 603 447 q 590 381 601 406 q 469 263 560 304 q 343 229 419 239 l 304 225 l 306 197 q 308 132 306 174 q 310 106 310 121 q 304 85 310 90 q 288 78 297 78 q 261 92 268 78 q 254 164 257 100 l 251 226 l 238 231 q 218 235 225 235 q 157 257 213 235 q 93 285 101 279 q 72 294 83 292 q 49 326 53 297 q 47 339 47 332 q 54 351 47 351 q 82 336 61 351 q 108 321 103 321 q 129 310 113 321 q 174 289 139 304 q 253 267 233 267 l 254 267 q 257 463 257 269 l 257 533 l 257 632 l 219 632 q 103 660 156 632 q 74 680 83 671 q 53 714 65 689 q 40 761 40 739 q 72 849 40 797 q 228 936 119 924 l 250 939 l 250 997 q 251 1049 250 1042 q 260 1061 253 1057 z "},"%":{"ha":651,"x_min":42,"x_max":611,"o":"m 585 1079 q 600 1082 590 1085 q 610 1078 608 1081 q 610 1064 611 1076 q 600 1029 610 1049 q 578 981 589 1010 q 501 840 554 924 q 485 811 485 813 q 474 788 485 803 q 447 744 464 775 q 411 677 431 714 q 386 632 392 640 q 293 478 319 518 q 196 339 218 382 q 143 255 185 319 q 93 175 101 190 q 63 140 75 140 q 43 160 53 140 q 42 165 42 163 q 60 199 42 174 q 122 293 82 233 q 190 396 161 353 q 239 469 218 439 q 269 518 254 490 q 294 564 283 546 q 436 808 435 804 q 464 854 457 844 q 557 1019 513 921 q 585 1079 581 1075 m 407 965 q 394 968 407 968 q 385 965 389 968 q 383 959 382 963 q 389 954 383 956 q 401 957 394 953 q 407 965 407 961 m 368 1043 q 400 1054 385 1054 l 413 1054 q 474 1014 463 1051 q 475 1003 475 1010 q 433 928 475 969 q 411 910 417 913 q 388 907 406 907 q 325 963 325 907 q 338 1006 325 981 q 368 1043 351 1031 m 239 231 q 236 238 239 233 q 231 244 233 242 q 226 244 228 246 q 223 238 224 242 q 224 230 222 233 q 231 226 226 226 q 239 231 239 226 m 226 292 q 261 304 244 304 q 288 300 271 304 q 311 284 306 294 q 318 243 317 274 l 319 210 l 304 196 q 272 178 293 186 q 238 169 251 169 q 193 199 222 169 q 182 226 182 210 q 226 292 182 265 z "},"&":{"ha":613,"x_min":43,"x_max":572,"o":"m 319 506 q 267 556 269 556 q 233 521 265 556 q 125 396 151 433 q 93 319 99 358 q 90 299 90 300 q 99 271 90 288 q 161 214 114 236 q 211 201 189 201 q 347 249 251 201 q 435 308 400 275 q 472 350 472 343 q 446 388 472 360 q 389 440 419 417 q 319 506 372 453 m 204 532 q 219 547 204 532 q 233 564 233 561 q 232 567 233 567 q 201 540 228 567 q 175 510 175 514 q 204 532 175 503 m 318 931 q 294 933 314 933 q 243 928 271 933 q 196 896 214 919 q 181 879 193 892 q 165 858 168 867 l 164 850 q 160 840 161 843 q 156 811 156 831 q 165 754 156 778 q 203 703 174 733 q 239 664 232 674 q 260 644 251 644 q 306 690 269 644 q 358 763 347 743 q 375 822 374 790 l 375 833 q 369 874 375 851 q 347 907 364 888 q 318 931 329 926 m 224 960 q 283 979 251 979 q 378 936 333 979 q 403 901 397 918 q 411 847 410 885 q 401 775 411 807 q 372 703 392 743 q 340 651 351 664 q 308 607 331 642 l 306 601 q 340 557 306 596 q 381 510 361 535 q 421 465 400 485 q 450 431 444 442 q 473 411 456 424 q 494 399 490 399 q 501 453 496 399 q 519 494 506 494 l 522 494 q 538 463 538 490 q 537 452 538 460 q 536 439 536 444 q 526 381 533 399 l 517 358 l 528 344 q 556 288 539 328 q 572 231 572 247 q 567 192 572 228 q 558 167 564 179 q 543 165 550 157 q 535 185 536 172 q 531 200 532 200 q 529 228 526 200 l 529 243 q 515 289 529 260 q 496 321 500 321 q 481 304 494 321 q 392 217 447 257 q 286 165 338 178 q 226 158 258 158 l 200 158 q 149 162 160 160 q 118 175 139 164 q 68 217 90 189 q 43 286 43 247 q 44 324 43 308 q 76 429 47 372 q 149 524 88 453 q 218 594 210 594 q 219 606 226 594 l 215 610 q 187 633 207 614 q 158 664 167 653 q 115 758 131 701 q 111 788 111 775 q 136 865 111 814 q 178 928 156 906 q 204 949 199 949 q 224 960 207 949 z "},"'":{"ha":128,"x_min":36,"x_max":92,"o":"m 42 865 q 43 901 36 893 q 58 910 50 910 q 79 894 71 910 q 92 747 92 869 q 86 678 92 689 q 71 665 81 665 q 51 682 60 665 q 44 735 44 696 l 44 767 q 42 865 44 849 z "},"‘":{"ha":128,"x_min":36,"x_max":92,"o":"m 42 865 q 43 901 36 893 q 58 910 50 910 q 79 894 71 910 q 92 747 92 869 q 86 678 92 689 q 71 665 81 665 q 51 682 60 665 q 44 735 44 696 l 44 767 q 42 865 44 849 z "},"‚":{"ha":128,"x_min":36,"x_max":92,"o":"m 42 865 q 43 901 36 893 q 58 910 50 910 q 79 894 71 910 q 92 747 92 869 q 86 678 92 689 q 71 665 81 665 q 51 682 60 665 q 44 735 44 696 l 44 767 q 42 865 44 849 z "},"(":{"ha":307,"x_min":42,"x_max":264,"o":"m 157 1031 q 218 1115 190 1115 q 225 1099 242 1115 q 214 1076 214 1088 q 204 1049 214 1065 q 151 922 183 1008 q 107 785 119 835 q 99 752 103 768 q 93 731 94 736 q 90 712 92 725 q 87 682 88 699 q 85 635 86 665 l 85 601 q 104 394 85 543 q 131 303 114 322 q 135 288 135 299 q 163 210 135 274 q 201 138 190 147 q 217 118 208 131 q 235 88 225 106 q 251 64 246 71 q 264 36 264 44 q 261 21 264 28 q 251 -1 256 3 l 250 -1 q 228 16 243 -1 q 201 56 214 33 q 178 92 189 81 q 140 154 165 104 q 54 435 69 292 q 43 585 44 532 q 42 614 43 596 q 42 639 42 632 q 67 783 42 701 q 79 832 79 824 q 108 912 79 838 q 142 993 138 986 q 157 1031 143 994 z "},")":{"ha":286,"x_min":43,"x_max":247,"o":"m 188 856 q 204 776 188 850 q 221 697 221 703 q 231 656 221 692 q 247 507 247 603 q 244 457 247 485 q 128 75 217 214 q 71 19 92 19 q 52 26 61 19 q 43 40 43 33 q 61 61 43 46 q 142 204 99 89 q 200 500 200 351 l 200 524 q 193 600 199 599 q 188 614 188 603 q 165 740 188 658 q 146 818 154 779 q 112 935 133 875 q 81 1000 90 994 q 65 1030 76 1003 q 51 1071 54 1057 q 58 1093 49 1083 q 68 1107 67 1103 q 73 1113 69 1113 q 79 1110 76 1114 q 82 1101 82 1107 q 86 1089 82 1092 q 103 1063 89 1088 q 118 1038 117 1039 q 157 954 126 1035 q 188 856 188 874 z "},"*":{"ha":746,"x_min":42,"x_max":706,"o":"m 342 750 q 358 757 350 757 q 376 733 371 757 q 396 517 386 693 q 406 450 400 450 q 413 454 413 450 q 444 494 413 463 q 486 544 465 518 q 532 600 507 571 q 582 642 568 642 q 596 631 596 642 q 606 611 596 618 q 614 582 614 604 q 599 553 614 561 q 542 501 585 546 q 499 450 499 457 q 517 446 499 446 q 561 447 540 446 q 693 463 651 451 q 704 463 703 465 q 706 442 706 460 q 699 408 706 418 q 677 399 693 400 q 575 397 661 397 q 456 394 456 397 q 497 344 456 389 q 547 296 539 299 q 578 268 556 293 q 600 226 600 244 q 592 206 600 217 l 582 194 l 567 213 q 509 267 553 232 q 454 313 465 301 q 408 344 419 344 l 406 343 q 406 301 404 343 q 411 199 408 260 q 415 81 415 107 q 407 31 415 51 q 376 -11 390 -11 q 361 121 361 -11 l 361 168 l 361 235 q 357 311 361 311 q 281 236 353 311 q 188 154 204 154 q 179 157 185 154 q 172 168 172 161 q 258 282 172 183 q 273 298 265 289 q 286 313 281 307 q 293 321 292 319 q 327 358 308 335 q 346 389 346 382 q 324 397 346 397 q 272 396 297 397 q 172 388 201 393 q 96 381 138 381 l 44 381 l 43 399 q 45 414 42 411 q 68 422 49 417 q 160 435 90 428 q 271 442 229 442 l 279 442 q 317 444 317 439 q 219 553 317 456 q 139 639 139 631 q 156 662 139 649 q 181 675 172 675 l 182 675 q 208 647 188 674 q 242 600 229 621 q 300 535 261 568 q 353 490 349 490 q 356 496 356 490 q 349 542 356 510 q 340 578 343 574 q 332 663 335 583 l 329 742 l 342 750 z "},"+":{"ha":688,"x_min":43,"x_max":647,"o":"m 318 772 q 338 783 332 783 q 363 713 351 783 q 382 486 372 644 l 385 438 l 436 440 q 565 447 532 444 q 638 450 629 450 l 646 450 q 647 443 647 450 q 644 429 646 436 q 617 401 639 407 q 507 392 594 394 q 397 388 424 388 l 393 388 q 380 369 383 388 q 376 294 376 351 q 392 67 376 125 q 394 26 394 56 l 394 13 l 393 -29 l 350 -29 l 349 -4 q 344 81 349 -1 q 336 182 339 163 q 331 297 331 215 l 331 382 l 229 381 q 100 374 121 378 q 83 372 93 372 q 58 381 72 372 q 44 392 44 389 q 47 406 43 394 q 56 417 50 415 q 92 418 63 418 q 136 422 132 418 q 186 426 138 425 q 283 431 235 428 q 331 438 331 433 q 326 499 331 457 q 321 611 321 565 q 313 713 321 660 l 304 761 l 318 772 z "},",":{"ha":174,"x_min":39,"x_max":138,"o":"m 106 218 l 106 236 q 121 256 106 256 q 138 224 138 256 l 138 210 q 104 96 136 158 q 50 31 72 31 q 44 33 47 31 q 39 46 39 38 q 57 86 39 60 q 83 126 75 114 q 98 164 90 139 q 106 218 106 189 z "},"-":{"ha":757,"x_min":35,"x_max":721,"o":"m 397 432 q 518 433 428 433 q 714 428 704 433 q 721 411 721 424 q 714 390 721 399 q 632 383 707 383 l 557 383 q 505 384 538 383 q 458 385 472 385 q 338 381 381 385 q 163 372 250 375 l 122 372 q 49 377 63 372 q 35 400 35 382 q 71 422 35 422 l 83 422 l 103 422 q 397 432 192 422 z "},".":{"ha":179,"x_min":38,"x_max":142,"o":"m 101 188 q 93 194 101 194 q 85 188 85 194 q 93 182 85 182 q 101 188 101 182 m 47 214 q 56 228 54 225 q 63 239 57 232 q 73 248 68 246 q 85 250 78 250 q 111 243 93 250 q 142 200 142 231 q 134 172 142 190 q 119 149 126 154 l 106 135 q 90 128 101 128 q 54 147 71 128 q 38 182 38 167 q 47 214 38 196 z "},"/":{"ha":449,"x_min":33,"x_max":407,"o":"m 363 868 q 392 900 379 900 q 407 888 407 900 q 397 853 407 882 q 353 724 385 819 q 321 622 321 628 q 317 617 321 617 q 314 608 314 617 q 293 551 314 601 q 221 351 279 518 q 153 157 163 183 q 89 -25 99 24 q 77 -42 88 -35 q 58 -50 67 -50 q 50 -47 53 -50 q 47 -10 33 -33 q 52 1 49 -8 q 61 28 56 11 q 71 58 67 46 q 120 190 82 93 q 171 328 158 288 l 200 419 l 214 468 q 232 521 218 489 q 304 703 267 607 q 328 775 310 711 q 363 868 346 838 z "},":":{"ha":228,"x_min":40,"x_max":190,"o":"m 101 658 q 93 663 101 668 q 88 653 81 657 q 94 651 90 651 q 101 658 101 651 m 47 692 q 72 710 54 701 q 104 718 89 718 q 122 713 115 718 q 133 692 128 706 q 138 668 138 679 q 123 633 138 647 q 85 618 108 618 q 53 633 67 618 q 40 668 40 649 q 47 692 40 683 m 146 140 q 151 144 151 140 q 143 149 151 149 q 140 143 132 149 l 146 140 m 82 158 q 99 183 82 172 q 136 194 117 194 q 188 142 179 194 q 181 119 190 128 q 136 103 160 103 q 107 115 118 103 q 82 158 82 146 z "},";":{"ha":171,"x_min":40,"x_max":132,"o":"m 90 660 q 90 679 99 668 q 78 679 85 686 q 74 668 74 675 q 78 658 74 661 q 90 660 82 654 m 49 710 q 68 714 53 714 q 100 708 90 714 q 117 685 111 703 l 122 668 l 114 654 q 76 629 100 633 q 63 631 67 628 q 47 647 58 633 q 40 676 40 657 q 49 710 40 701 m 110 222 q 122 226 114 228 q 131 217 129 224 q 131 213 131 215 q 132 208 132 210 q 93 103 132 164 q 68 78 76 78 q 61 82 65 78 q 67 111 47 94 q 78 124 78 122 q 90 154 78 126 q 104 200 101 179 q 110 222 107 215 z "},"<":{"ha":713,"x_min":43,"x_max":674,"o":"m 540 713 q 571 704 568 722 q 547 671 574 693 q 449 599 471 604 q 438 592 438 596 q 429 585 438 588 q 406 569 421 582 q 371 545 397 563 q 339 524 344 528 q 310 506 325 514 q 283 489 286 494 q 172 426 264 472 q 124 399 124 400 q 166 381 124 397 q 217 361 208 364 q 296 338 242 350 q 442 294 333 329 q 582 253 550 258 q 619 240 590 251 q 656 228 647 229 q 672 207 671 222 q 667 184 674 194 q 651 174 660 174 q 596 194 649 174 q 492 228 543 215 q 396 258 451 238 q 293 289 340 278 q 179 324 201 314 q 96 353 147 339 q 53 368 63 363 q 43 385 43 374 q 110 433 43 400 q 272 524 176 467 q 389 600 367 581 q 398 607 390 601 q 418 622 406 613 q 442 639 431 631 q 510 689 489 671 q 540 713 531 708 z "},"=":{"ha":481,"x_min":38,"x_max":444,"o":"m 285 546 q 381 553 365 553 q 410 546 400 553 q 419 531 419 538 q 382 504 419 511 q 118 490 319 490 q 58 493 61 490 q 47 513 50 499 q 64 538 44 528 q 101 546 78 546 q 150 544 128 546 q 211 543 169 543 q 285 546 261 543 m 365 361 q 389 363 371 363 q 439 356 428 363 q 444 338 444 350 q 438 315 444 325 q 414 306 432 308 q 314 301 396 303 q 132 296 228 300 q 92 294 114 294 q 51 304 67 294 q 38 321 38 314 q 51 339 38 328 q 207 353 64 349 q 365 361 356 358 z "},">":{"ha":635,"x_min":43,"x_max":594,"o":"m 61 835 q 77 842 67 842 q 96 838 88 843 l 104 828 q 122 808 113 819 q 143 786 132 797 q 163 767 154 775 q 174 760 171 760 q 176 757 176 760 q 279 669 176 740 q 339 632 335 632 l 526 518 q 566 495 543 511 q 592 471 589 479 q 594 460 594 463 q 538 392 594 438 q 485 353 492 353 q 461 335 482 353 q 408 297 442 315 q 311 238 374 278 q 249 194 249 197 q 233 185 249 190 q 153 139 214 178 q 61 92 78 92 q 54 93 56 92 q 43 106 43 97 q 131 182 43 124 q 183 221 172 210 q 249 271 214 251 q 346 328 328 315 q 388 353 363 340 q 407 368 407 363 q 483 415 407 371 q 529 451 529 442 q 524 457 529 456 q 506 468 518 458 q 389 543 494 476 q 331 576 368 556 q 268 613 293 596 q 232 632 242 632 q 219 643 225 632 q 188 675 214 656 q 107 749 163 693 q 54 819 54 801 q 61 835 54 825 z "},"?":{"ha":579,"x_min":42,"x_max":540,"o":"m 250 976 q 283 979 253 979 q 354 967 318 979 q 411 942 383 957 q 510 854 481 899 q 540 750 540 810 q 528 644 540 657 q 519 632 519 636 q 502 593 519 626 q 474 543 485 560 q 388 468 444 501 q 367 456 379 464 q 351 446 354 447 q 318 431 343 442 q 264 389 278 414 q 254 331 254 371 q 257 267 254 319 q 258 236 258 253 q 253 217 258 218 q 247 208 247 214 q 236 204 247 199 q 228 211 231 206 q 221 294 224 221 l 221 332 q 226 386 221 369 q 251 424 232 403 q 288 453 271 444 q 308 467 301 460 q 321 472 314 472 q 366 492 333 472 q 421 533 399 513 q 478 618 453 564 q 488 638 481 624 q 496 657 494 653 q 501 672 497 661 q 505 692 504 683 q 507 713 506 700 q 508 742 508 725 q 501 785 508 761 q 489 810 494 810 q 482 822 488 810 q 442 871 475 842 q 378 915 408 900 q 272 939 332 939 q 144 906 203 939 q 72 822 86 874 q 51 781 63 781 l 50 781 q 42 806 42 782 q 93 908 42 854 q 211 968 135 953 q 250 976 250 975 m 214 119 q 199 126 207 126 q 218 107 188 126 q 214 119 225 108 m 278 169 q 294 175 288 175 q 311 149 310 175 l 311 139 q 305 78 311 115 q 292 29 299 40 q 263 -1 274 -1 q 233 24 256 -1 q 203 52 226 32 q 166 90 179 72 q 153 126 153 107 q 163 149 153 140 q 189 157 174 157 q 221 149 204 157 q 238 138 236 142 q 257 149 243 128 q 278 169 267 164 z "},"@":{"ha":692,"x_min":42,"x_max":653,"o":"m 315 522 q 299 525 308 525 q 239 515 268 525 q 200 488 210 504 q 179 454 196 479 q 150 381 150 411 q 178 300 150 347 q 254 236 203 263 q 283 229 271 229 q 321 239 301 229 q 407 371 407 282 q 386 458 407 411 q 315 522 365 506 m 211 710 l 233 722 l 290 721 q 471 678 392 718 q 590 581 550 639 q 604 564 601 564 q 610 557 607 564 q 619 549 611 553 q 626 536 626 544 q 633 503 626 521 q 653 371 653 449 q 650 338 653 344 q 644 313 649 335 q 603 244 642 286 q 536 217 576 217 q 439 264 479 217 q 418 283 421 286 q 381 238 385 238 l 375 235 q 362 227 371 232 q 346 218 353 222 q 306 197 319 201 q 296 190 296 194 q 286 188 296 188 q 236 199 258 188 q 160 260 199 215 q 125 339 142 283 q 121 365 121 356 q 124 394 121 367 q 127 417 125 408 q 133 433 129 426 q 139 444 136 440 q 148 458 142 449 q 160 475 154 467 q 199 519 179 506 q 264 546 219 532 q 293 549 275 549 q 354 543 318 549 q 392 508 371 542 q 425 433 414 475 q 432 367 432 411 l 432 340 q 432 330 432 333 q 434 323 432 326 q 437 318 436 319 q 442 311 438 317 q 451 301 447 306 q 517 257 478 269 q 542 251 536 251 q 583 274 560 251 q 629 383 629 315 q 626 410 629 393 q 606 499 619 463 q 581 539 593 536 q 574 550 574 540 q 548 587 574 561 q 494 629 522 613 q 382 678 450 657 q 283 694 326 694 q 172 658 225 694 q 128 606 156 647 q 101 551 101 564 l 103 549 q 106 539 107 544 q 99 533 104 533 q 83 504 89 533 q 75 447 76 475 l 75 418 q 72 394 72 418 q 82 269 72 314 q 128 157 99 189 q 144 131 138 147 q 174 92 150 118 q 219 53 199 67 q 308 14 249 32 q 406 3 346 3 q 493 11 467 3 q 586 81 560 33 q 611 101 603 108 l 614 83 q 601 46 615 67 q 424 -37 550 -32 l 396 -37 q 304 -29 346 -37 q 240 -5 282 -28 q 175 36 197 18 q 115 111 132 76 q 104 126 108 126 q 89 149 101 126 q 69 192 76 172 q 42 381 42 263 q 54 504 42 453 q 60 538 63 535 q 65 547 57 542 q 75 564 72 551 q 94 604 76 575 q 128 650 113 633 q 211 710 150 676 z "},"A":{"ha":644,"x_min":43,"x_max":610,"o":"m 282 788 q 271 726 282 781 q 260 665 260 672 q 256 644 260 656 q 221 519 221 540 q 296 515 221 515 q 375 513 361 515 q 389 499 389 511 l 389 490 q 385 474 388 476 q 374 472 383 471 l 357 472 l 288 472 q 208 467 214 472 q 192 425 203 461 q 179 368 181 389 q 161 278 176 342 q 143 199 146 214 q 121 138 133 150 q 108 128 114 131 q 98 131 101 126 q 94 144 94 135 q 118 260 94 186 q 130 311 126 288 q 144 378 133 335 q 167 463 161 440 q 167 464 167 464 q 168 465 168 464 q 117 474 168 471 q 43 499 43 478 q 50 512 43 508 q 81 515 57 515 q 98 515 85 515 q 121 514 111 514 l 185 513 l 190 536 q 208 601 194 557 q 219 647 219 635 q 213 661 219 654 q 214 667 206 667 q 222 672 218 667 q 228 688 225 678 q 232 706 231 697 q 235 724 233 714 q 236 738 236 735 q 269 869 240 786 q 283 926 283 908 q 287 938 283 932 q 290 947 290 943 q 296 965 290 958 q 310 975 301 975 q 332 956 321 975 q 356 901 343 936 q 368 864 368 865 q 394 799 372 853 q 421 733 417 744 q 438 686 432 708 q 449 658 444 660 q 476 590 451 657 q 510 486 500 524 q 526 444 515 468 q 543 401 538 419 q 599 231 586 243 q 597 197 610 219 q 578 183 586 182 q 565 197 571 185 q 544 261 560 208 q 493 414 510 378 q 471 482 485 433 q 450 547 457 531 q 431 603 446 558 q 419 631 425 619 q 406 663 413 642 q 376 738 401 676 q 346 817 350 800 q 333 843 343 828 q 319 869 322 858 q 311 883 315 883 q 294 843 306 883 q 282 788 282 803 z "},"B":{"ha":558,"x_min":42,"x_max":521,"o":"m 131 1003 q 178 1007 154 1007 q 324 969 257 1007 q 360 936 340 960 q 390 892 381 913 q 401 874 396 881 q 408 860 406 867 q 414 836 411 854 q 419 788 419 800 q 364 665 419 722 q 344 639 342 642 q 357 636 347 636 q 397 622 371 636 q 442 589 422 607 q 481 532 467 564 q 497 489 497 496 q 500 481 497 481 q 513 443 503 481 q 521 379 521 413 l 521 356 q 507 283 519 310 q 471 231 490 250 q 415 194 451 213 l 372 172 l 317 174 q 117 219 182 175 q 92 240 97 232 q 88 261 88 247 q 91 274 88 271 q 101 274 94 276 q 115 263 107 271 q 203 219 138 238 q 269 213 231 213 l 303 213 q 394 224 374 214 q 429 244 414 232 q 481 298 472 281 q 489 365 489 315 q 483 429 489 414 q 476 453 476 443 q 472 460 476 460 q 464 481 469 460 q 378 582 444 549 q 335 594 353 594 q 275 581 313 594 q 233 569 246 569 q 226 571 228 569 q 219 581 219 575 q 230 597 219 588 q 253 615 240 606 q 268 625 267 624 q 289 640 272 629 q 371 721 347 681 q 385 771 383 743 q 385 779 385 774 q 386 788 386 785 q 375 849 386 849 q 364 867 372 849 q 316 925 353 894 q 251 957 279 956 q 229 961 232 960 q 174 965 219 965 q 108 960 119 965 l 96 953 l 99 921 q 104 879 101 893 q 113 768 106 876 q 121 657 121 660 q 136 551 126 646 q 149 371 146 456 q 150 318 150 347 q 146 289 150 297 q 121 271 132 265 q 117 336 117 272 q 113 413 117 403 q 102 523 111 421 q 90 633 93 625 q 79 756 83 658 q 71 857 74 857 q 68 876 68 857 q 65 917 68 892 q 53 939 63 939 q 44 943 46 939 q 44 954 42 947 q 54 968 47 961 q 131 1003 79 993 z "},"C":{"ha":615,"x_min":39,"x_max":575,"o":"m 299 969 q 354 974 311 974 q 451 967 421 974 q 482 963 469 963 q 563 936 494 963 q 571 921 571 933 q 561 907 571 914 q 540 900 551 900 q 532 901 535 900 q 522 904 529 901 q 503 910 515 907 q 481 917 490 914 q 399 928 440 928 l 367 928 q 300 924 314 926 q 261 910 286 922 q 198 864 228 893 q 157 810 168 835 q 133 767 147 788 q 104 672 104 719 q 99 646 104 650 q 89 551 89 638 q 92 494 89 508 q 101 451 97 465 q 112 422 104 438 q 124 396 119 406 q 233 261 161 294 q 339 231 303 231 q 417 242 360 231 q 507 265 475 254 q 550 272 528 272 q 575 264 575 272 q 555 237 575 256 q 521 214 535 218 q 469 201 510 211 q 435 192 436 193 q 381 181 432 186 q 336 178 342 178 q 294 183 317 178 q 139 267 183 211 q 74 392 108 303 q 43 542 43 458 q 46 590 43 557 q 49 628 49 621 q 44 653 49 647 q 47 668 39 661 q 65 708 56 676 q 99 787 74 738 q 144 864 124 836 q 215 924 164 889 q 299 969 265 960 z "},"D":{"ha":604,"x_min":43,"x_max":565,"o":"m 231 953 q 140 968 199 967 l 83 969 l 83 922 q 90 836 83 888 q 103 782 97 785 q 113 733 108 778 q 128 601 128 604 q 131 579 128 579 q 142 524 136 579 q 167 328 150 443 q 172 254 172 286 q 178 219 172 219 l 194 219 q 303 225 264 219 q 374 251 369 238 q 394 267 376 256 q 447 310 417 278 q 493 374 476 343 q 524 504 524 431 q 522 561 524 539 q 494 697 517 675 q 488 708 488 704 q 483 715 488 711 q 456 758 482 715 q 358 871 422 815 q 231 953 294 926 m 82 1001 q 168 1015 104 1015 q 233 1007 214 1015 q 364 932 317 971 q 422 886 407 897 q 441 868 432 878 q 455 851 450 858 q 469 829 460 843 q 486 804 478 815 q 519 751 513 767 q 534 730 521 749 q 547 700 547 711 q 551 672 547 681 q 565 517 565 647 q 564 468 565 481 q 518 336 556 388 q 497 301 497 304 q 467 267 497 299 q 422 225 436 236 q 311 176 382 192 q 229 172 288 172 q 119 178 149 172 q 76 200 88 183 q 65 231 65 218 q 69 242 65 239 q 92 233 74 243 q 122 224 108 224 l 133 224 l 131 271 q 117 381 128 306 q 103 489 106 457 q 94 557 100 526 q 83 631 88 588 q 65 764 72 757 q 53 828 60 771 q 44 932 46 885 l 43 993 l 57 993 q 82 1001 68 993 m 465 704 q 464 707 464 704 q 465 710 464 710 q 468 707 468 710 q 465 704 468 704 z "},"E":{"ha":560,"x_min":43,"x_max":518,"o":"m 83 872 q 228 900 93 893 q 450 907 363 907 q 496 906 492 907 q 504 890 503 903 q 499 869 506 878 q 329 858 492 861 q 150 854 160 856 q 132 851 133 851 q 129 840 129 851 q 142 721 129 815 q 156 622 156 626 l 160 593 l 193 592 q 232 594 226 589 q 285 599 236 599 q 456 585 439 599 q 461 566 461 579 q 456 547 461 553 q 394 544 450 544 l 346 544 l 294 544 q 201 543 217 544 l 160 540 l 161 521 q 165 417 165 451 q 161 328 165 382 q 157 254 157 272 q 160 235 157 238 q 208 224 165 229 q 240 221 233 221 q 301 229 257 221 q 435 239 351 239 l 517 240 l 518 225 l 518 217 q 503 197 518 201 q 431 188 488 192 q 397 182 403 185 q 311 175 393 181 q 247 174 288 174 q 122 193 151 174 l 104 206 l 106 232 q 118 450 118 369 l 118 469 l 117 540 l 83 542 q 44 553 50 543 q 43 558 43 554 q 57 577 43 568 q 90 589 71 586 l 115 592 l 111 636 q 102 705 110 665 q 93 778 94 744 q 85 847 93 782 q 83 863 83 854 q 83 872 82 871 z "},"F":{"ha":415,"x_min":43,"x_max":376,"o":"m 51 961 q 67 968 63 968 q 96 964 72 968 q 239 957 133 957 q 361 951 357 954 q 372 938 367 950 q 376 918 376 926 q 374 910 376 913 q 331 906 369 906 q 286 906 324 906 q 215 907 249 907 q 97 899 97 907 q 104 796 97 876 q 111 639 111 703 l 111 583 l 140 579 q 336 565 242 565 l 356 565 l 356 542 q 353 522 356 526 q 342 515 351 517 q 326 514 339 514 q 281 517 314 514 q 179 525 221 522 l 128 528 l 128 514 q 142 387 128 475 q 160 278 157 299 q 163 239 163 242 q 153 210 163 224 q 119 200 132 183 q 114 251 114 211 q 104 336 111 301 q 96 392 96 378 q 90 407 96 407 q 85 422 85 407 q 81 464 85 443 q 69 618 74 496 q 47 929 57 885 q 44 951 43 947 q 51 961 44 956 z "},"G":{"ha":697,"x_min":42,"x_max":660,"o":"m 299 913 q 403 932 350 932 q 506 917 490 932 q 507 893 513 910 q 486 874 503 875 q 469 875 469 871 q 393 878 469 878 q 285 863 313 876 q 175 764 207 826 q 147 721 156 726 q 142 709 143 718 q 136 699 142 700 q 113 661 129 696 q 92 606 96 626 l 92 593 q 94 531 92 578 q 172 344 104 408 q 233 297 211 308 q 247 290 239 294 q 326 261 299 263 q 360 260 338 260 l 389 260 q 467 262 451 260 q 513 278 483 264 q 583 335 554 299 q 610 372 604 361 q 618 410 615 383 q 619 440 619 421 q 604 497 619 486 q 499 513 583 513 l 472 513 l 443 513 q 403 517 411 513 q 394 538 394 521 q 449 563 394 563 q 540 556 475 563 q 621 538 599 549 q 653 501 643 528 q 660 467 660 481 q 656 419 660 453 q 637 340 649 367 q 589 275 625 314 q 431 203 532 213 q 384 198 418 201 q 333 194 350 194 q 240 219 282 194 q 206 239 238 221 q 118 312 151 269 q 58 431 85 354 q 42 535 42 481 q 57 637 42 592 q 121 771 72 682 q 152 819 140 806 q 203 861 164 832 q 299 913 244 890 z "},"H":{"ha":711,"x_min":43,"x_max":671,"o":"m 146 971 q 164 972 153 981 q 164 968 171 968 q 157 943 157 968 q 163 883 157 900 q 169 800 164 876 q 179 694 171 746 q 183 674 181 689 q 187 645 185 658 q 190 622 189 632 q 194 603 192 614 q 197 588 196 592 q 199 580 197 585 q 206 574 201 575 q 218 573 211 574 q 238 572 225 572 l 256 572 l 276 572 q 532 586 532 572 q 528 619 532 597 q 519 646 524 642 q 505 728 515 651 q 492 856 494 806 q 490 890 490 869 q 508 922 490 922 q 521 907 517 922 q 529 840 525 892 q 550 704 540 711 q 561 656 554 700 q 579 589 574 592 q 585 588 581 588 q 606 590 586 588 l 617 590 q 671 571 671 590 q 656 550 671 563 q 615 538 639 538 q 589 528 589 538 q 597 447 589 507 q 610 383 606 388 q 615 368 615 378 q 631 296 615 357 q 650 185 650 215 q 631 150 650 150 q 615 159 619 150 q 603 213 611 168 q 574 329 585 318 q 560 396 571 332 q 546 493 549 460 l 543 533 l 492 529 q 326 525 408 525 q 213 522 213 525 q 236 288 213 456 l 242 233 l 228 213 q 208 192 215 192 q 193 261 199 192 q 165 501 183 371 l 163 525 l 108 526 q 43 543 43 531 q 46 551 43 546 q 115 572 60 572 q 154 576 154 572 q 144 639 154 583 q 122 899 122 769 q 124 947 122 938 q 132 960 125 956 q 146 971 144 965 z "},"I":{"ha":386,"x_min":43,"x_max":346,"o":"m 200 954 q 233 958 222 967 q 239 926 239 954 q 238 864 239 893 q 231 781 235 818 q 226 717 228 743 q 225 642 225 690 l 225 568 q 236 344 226 397 l 247 286 l 286 282 q 337 276 328 279 q 346 260 346 272 q 335 236 346 240 q 274 232 325 232 q 178 236 206 232 q 139 254 147 239 q 135 268 135 263 q 169 285 135 285 q 196 303 196 285 q 192 335 196 314 q 179 517 179 399 q 200 875 179 675 l 203 906 l 178 903 q 76 896 125 896 q 56 897 60 896 q 43 915 43 901 q 50 935 43 931 q 119 942 51 936 q 200 954 183 946 z "},"J":{"ha":489,"x_min":40,"x_max":450,"o":"m 67 992 q 97 992 85 1001 q 196 968 131 968 l 211 968 q 297 971 272 971 l 328 971 l 339 933 q 356 865 349 906 q 390 728 361 840 q 396 709 392 721 q 400 696 400 697 q 423 599 408 675 q 438 485 438 524 q 443 444 438 450 q 450 293 450 438 q 444 126 450 160 q 392 -16 428 28 q 267 -60 357 -60 q 197 -44 226 -60 q 117 21 156 -24 q 54 118 78 65 q 40 197 40 150 q 51 263 40 247 q 135 315 71 293 q 186 326 171 326 q 206 313 206 326 q 167 288 206 292 q 115 271 142 286 q 79 240 88 256 q 72 200 72 228 q 88 125 72 160 q 189 0 133 32 q 274 -22 229 -22 q 299 -19 282 -22 q 367 15 346 -10 q 401 99 389 39 q 411 304 411 150 q 406 403 411 393 q 397 465 400 415 q 383 574 396 503 q 365 653 371 646 q 322 822 350 675 q 307 879 313 874 q 300 906 301 889 l 297 928 l 206 928 q 118 922 118 928 q 119 913 118 921 q 122 892 121 904 q 124 868 124 879 l 124 853 q 110 810 124 810 q 86 882 100 810 q 76 933 79 924 q 64 954 74 943 q 54 975 54 965 q 67 992 54 986 z "},"K":{"ha":667,"x_min":43,"x_max":626,"o":"m 49 1076 q 63 1083 53 1085 q 76 1064 72 1082 q 83 983 81 1046 q 113 703 97 717 q 133 703 119 697 q 174 728 146 708 q 215 760 201 747 q 228 771 218 763 q 253 792 238 779 q 279 814 269 806 q 408 939 325 853 l 489 1022 l 499 1010 q 507 988 508 997 q 463 940 506 981 q 408 885 424 906 q 328 800 399 868 q 251 732 258 732 q 226 714 247 732 q 189 686 194 689 q 172 675 172 678 q 235 613 172 672 q 300 554 297 554 q 363 499 301 554 q 440 429 410 456 q 476 392 453 419 q 500 358 500 364 q 531 316 500 356 q 571 267 561 276 q 588 246 575 263 q 611 222 600 229 q 626 199 626 214 q 619 174 626 185 q 603 163 613 163 q 568 193 597 163 q 539 231 539 224 q 533 239 539 236 q 479 306 528 242 q 392 406 432 368 q 263 525 289 507 q 197 583 239 542 q 128 640 139 640 l 126 640 q 135 550 124 638 q 156 411 146 463 q 167 317 160 388 q 185 225 175 232 q 192 208 192 218 q 183 181 192 194 q 161 168 174 168 q 129 276 136 168 q 117 375 128 310 q 88 596 104 446 q 76 635 85 626 q 65 674 69 642 q 51 831 51 800 q 47 857 51 857 q 43 943 43 857 q 49 1076 43 1065 z "},"L":{"ha":621,"x_min":42,"x_max":581,"o":"m 61 504 q 56 604 61 547 q 50 713 50 661 q 44 888 50 788 l 42 960 q 46 983 42 979 q 68 987 57 989 q 82 976 79 985 q 95 782 86 963 q 104 536 104 601 l 104 528 q 114 403 104 486 q 125 288 124 321 l 129 225 l 163 225 q 196 231 196 225 q 238 235 196 235 q 325 233 271 235 q 432 227 379 231 q 492 224 485 224 q 581 211 581 219 q 569 192 581 207 q 557 178 563 181 q 533 174 551 175 l 525 174 q 407 181 486 174 q 278 188 307 188 q 178 183 242 188 q 132 181 139 181 q 94 195 100 181 q 83 275 88 210 q 75 371 78 360 q 61 504 61 439 z "},"M":{"ha":822,"x_min":39,"x_max":782,"o":"m 44 931 q 39 944 39 938 q 72 964 39 964 q 92 947 78 965 q 122 902 106 928 q 142 871 138 876 q 168 826 147 864 q 197 779 189 788 q 241 714 213 763 q 281 640 269 665 q 327 550 294 607 q 372 469 360 493 q 429 374 424 374 q 442 388 432 374 q 453 403 451 401 q 482 459 457 406 q 515 542 507 513 q 546 622 536 601 q 564 671 564 667 q 574 696 564 679 q 617 829 596 739 q 657 919 639 919 q 669 913 664 919 q 694 846 686 894 q 724 574 701 797 q 738 478 731 514 q 744 440 739 467 q 750 404 749 413 q 757 378 753 381 q 774 299 764 375 q 782 228 782 242 q 778 207 782 215 q 760 190 772 190 q 742 218 742 190 q 736 242 742 236 q 726 283 729 246 q 708 394 724 315 q 665 728 686 511 q 653 803 657 803 q 636 760 647 803 q 614 696 625 718 q 603 663 603 668 q 593 639 603 661 q 542 503 583 621 q 496 403 528 465 q 451 329 464 342 q 424 313 435 313 q 390 344 410 313 q 253 592 297 496 q 179 719 208 688 q 106 847 163 736 q 93 864 99 864 q 85 653 89 864 q 81 400 81 442 l 81 365 q 83 288 81 315 q 86 260 86 263 q 75 235 86 247 q 57 219 63 219 q 44 229 50 219 q 39 250 39 239 q 39 269 39 253 q 40 311 39 286 q 40 358 40 336 q 45 565 40 443 q 51 765 50 688 l 51 842 q 44 931 51 919 z "},"N":{"ha":560,"x_min":43,"x_max":525,"o":"m 49 949 q 74 961 57 961 q 97 956 86 961 q 108 943 108 950 q 160 835 108 938 q 219 725 213 732 q 257 665 228 717 q 286 606 286 613 q 310 551 286 600 q 342 496 335 503 q 349 485 349 489 q 400 376 349 479 q 457 267 451 272 q 467 260 464 260 q 479 292 474 260 q 486 557 486 333 q 482 783 486 714 q 479 826 481 803 q 477 863 478 850 q 476 883 476 875 q 488 911 476 908 l 490 911 q 504 895 500 911 q 515 831 508 879 q 525 486 525 743 q 522 354 525 404 q 492 200 515 264 q 474 181 483 181 q 454 190 464 181 q 410 246 414 224 q 369 336 407 261 q 324 419 332 411 q 313 440 315 428 q 261 551 310 451 q 210 653 213 650 q 175 710 204 657 q 133 794 146 764 q 97 864 104 864 q 96 846 93 864 q 104 625 100 818 q 131 297 110 364 q 138 268 138 274 q 131 256 138 258 q 121 242 125 254 q 111 229 117 231 l 110 229 q 96 249 101 229 q 86 304 90 269 q 81 343 82 339 q 65 635 65 417 q 61 721 65 721 q 56 760 58 721 q 50 844 53 799 q 47 892 47 889 q 43 929 43 919 q 49 949 43 942 z "},"O":{"ha":647,"x_min":42,"x_max":610,"o":"m 421 908 q 364 919 403 918 l 343 919 q 300 907 321 919 q 277 895 297 906 q 241 876 257 885 q 206 858 225 868 q 177 838 188 847 q 167 824 167 829 q 151 801 167 819 q 103 714 124 769 q 83 599 83 658 q 133 389 83 486 q 189 317 154 350 q 269 256 238 271 q 353 240 301 242 q 422 250 401 240 q 446 264 446 261 q 465 276 446 269 q 532 342 503 290 q 571 464 561 394 q 575 539 575 494 q 560 707 575 649 q 503 829 543 772 q 421 908 464 886 m 321 958 q 360 961 335 961 l 376 961 q 439 947 415 960 q 497 900 463 935 q 556 818 535 860 q 610 563 608 710 l 610 551 q 532 274 610 364 q 510 243 510 249 q 474 223 510 238 q 414 201 439 208 q 338 194 383 194 q 267 207 292 194 q 226 228 233 222 q 204 238 214 238 q 194 244 194 238 q 157 289 194 251 q 101 358 119 326 q 72 426 88 383 q 57 482 57 468 q 54 493 57 493 q 44 526 50 493 q 42 567 42 551 q 72 726 42 642 q 149 860 103 810 q 219 907 168 882 q 272 936 267 931 q 321 958 282 950 z "},"P":{"ha":585,"x_min":44,"x_max":546,"o":"m 404 933 q 357 951 389 942 q 307 961 325 961 q 236 949 239 958 q 221 943 233 943 q 122 919 185 943 l 108 914 l 111 853 q 133 643 113 811 q 146 553 143 558 q 182 549 147 549 q 278 557 247 549 q 367 592 313 565 q 442 640 417 617 q 488 706 468 664 q 503 757 503 739 q 481 846 503 779 q 449 892 475 864 q 404 933 424 921 m 278 1006 q 314 1008 303 1008 q 415 989 357 1008 q 483 926 439 981 q 528 849 528 871 q 532 842 528 842 q 542 810 536 842 q 546 769 546 789 q 433 581 546 656 q 190 506 319 506 q 149 500 149 506 l 150 497 q 150 494 150 496 q 175 349 158 468 q 192 201 192 231 q 185 165 192 181 q 168 150 178 150 q 149 199 154 150 q 143 253 149 201 q 131 351 138 304 q 119 400 125 397 q 113 431 115 404 q 94 583 111 451 q 76 717 79 714 q 71 815 71 725 l 71 904 l 60 904 q 44 921 44 904 q 57 943 44 943 q 109 961 65 943 q 156 983 153 979 q 185 993 158 989 q 242 1001 211 997 q 278 1006 272 1004 z "},"Q":{"ha":796,"x_min":42,"x_max":756,"o":"m 375 946 l 324 954 q 233 926 288 947 q 164 883 189 908 q 114 805 136 854 q 85 703 92 756 q 81 625 81 672 q 88 542 81 563 q 92 528 89 538 q 100 508 96 519 q 107 489 104 496 q 185 350 142 393 q 304 272 247 288 q 346 265 325 265 q 388 268 351 265 q 474 290 439 272 q 517 319 511 310 q 519 326 519 325 q 490 350 519 331 q 400 399 446 379 q 369 421 372 410 q 375 442 368 433 q 393 450 382 450 q 506 403 436 450 q 546 378 540 378 q 574 443 558 378 q 585 529 581 478 q 588 594 588 551 q 535 828 588 733 q 513 858 517 858 q 508 865 508 858 q 482 897 508 872 q 442 928 456 921 q 375 946 413 940 m 278 986 l 283 986 q 294 988 289 988 q 422 978 371 988 q 476 954 443 974 q 518 921 508 935 q 536 897 531 904 q 578 823 556 875 q 614 719 601 771 q 625 599 625 672 q 601 410 625 472 q 588 358 588 368 q 596 343 588 347 q 671 292 671 300 q 676 289 671 289 q 681 286 681 289 q 683 283 681 283 q 688 283 685 283 q 694 279 692 282 q 710 275 701 272 q 713 276 711 275 q 715 276 714 276 q 740 268 726 276 q 754 250 753 260 q 752 239 756 242 q 735 228 749 236 l 714 218 l 679 229 q 640 246 649 238 q 579 289 624 263 l 557 301 l 524 271 q 481 239 492 239 q 446 228 471 239 q 367 217 424 217 q 275 229 311 217 q 236 244 240 240 q 229 246 235 246 q 219 247 224 246 q 215 250 215 247 q 181 285 215 256 q 133 329 147 313 q 71 456 107 361 q 61 474 64 471 q 42 632 42 489 q 46 703 42 674 q 110 865 60 790 q 218 964 160 940 q 246 975 228 967 q 278 986 264 983 z "},"R":{"ha":583,"x_min":43,"x_max":544,"o":"m 175 976 q 133 979 157 979 q 96 978 111 979 l 78 975 l 79 944 q 99 686 96 690 q 103 650 101 681 q 107 592 106 619 q 110 564 108 564 q 171 578 115 564 q 294 630 253 597 q 354 722 336 663 q 358 754 358 736 q 325 882 358 818 q 281 935 310 911 q 175 976 239 968 m 111 1018 q 160 1022 133 1022 q 304 978 247 1022 q 334 951 328 958 q 356 913 340 943 q 396 754 396 829 q 392 717 396 733 q 346 625 372 657 q 306 592 336 614 q 268 571 275 571 q 251 566 261 571 q 242 558 242 561 q 264 533 242 556 q 340 447 317 481 q 378 365 363 413 q 393 331 390 331 q 397 326 397 331 q 410 294 397 322 q 492 226 444 226 l 500 226 l 531 229 q 543 219 542 229 q 528 194 544 210 q 492 179 511 179 q 418 213 449 179 q 388 256 410 221 q 378 269 383 263 q 368 281 372 276 q 364 288 364 286 q 353 313 360 293 q 347 339 347 332 q 342 351 347 343 q 338 361 336 358 q 329 383 339 365 q 314 415 321 397 q 265 469 307 426 q 211 517 224 511 q 163 526 196 525 q 118 532 128 529 q 114 533 117 533 q 111 522 111 533 q 118 432 111 518 q 125 344 121 408 q 132 257 129 279 q 133 251 132 254 q 133 246 133 247 q 115 217 133 217 q 101 224 107 217 q 90 325 96 229 q 81 435 88 379 q 74 558 75 490 q 66 660 71 624 q 57 769 61 697 q 51 865 56 835 q 44 936 46 896 q 44 957 44 944 q 43 974 43 969 q 48 1003 43 997 q 67 1011 53 1010 q 111 1018 69 1011 z "},"S":{"ha":600,"x_min":42,"x_max":563,"o":"m 215 993 l 222 993 q 301 982 256 993 q 347 951 347 971 q 340 938 347 944 q 319 931 322 921 q 307 941 319 935 q 289 946 294 947 q 268 950 283 943 q 239 956 257 956 q 228 955 236 956 q 215 954 221 954 q 85 857 114 950 q 75 797 75 826 q 82 767 75 775 q 102 735 86 763 q 128 699 118 708 l 143 682 l 175 683 q 224 690 188 685 q 333 704 283 704 q 440 670 386 704 q 522 585 493 636 q 540 556 536 560 q 561 469 553 547 q 563 444 563 461 q 554 364 563 408 q 535 315 551 344 q 500 269 518 285 q 379 199 439 214 q 318 194 361 194 q 249 197 293 194 q 101 265 126 207 q 97 282 99 272 q 95 299 94 292 q 99 306 96 306 q 121 286 104 306 q 158 258 138 267 q 226 239 178 249 q 315 229 274 229 q 435 267 389 229 q 450 279 439 271 q 465 292 461 288 q 526 428 522 335 q 527 442 526 433 q 528 456 528 451 q 522 499 528 478 q 468 596 508 551 q 367 657 428 640 q 326 660 357 660 q 257 654 283 660 q 167 642 201 642 q 129 649 142 642 q 68 713 96 665 q 54 735 60 729 q 42 804 42 744 q 46 846 42 829 q 99 942 61 899 q 129 967 121 967 q 144 972 133 967 q 215 993 158 982 z "},"T":{"ha":488,"x_min":-147,"x_max":621,"o":"m 576 958 q 593 960 581 963 q 611 950 606 957 q 621 929 621 939 q 525 903 621 903 q 406 897 472 903 q 338 885 340 890 q 296 879 335 879 l 257 879 l 258 803 q 269 665 258 735 q 292 329 289 532 q 296 224 294 233 q 297 199 297 211 q 289 182 297 189 q 254 181 268 164 q 250 242 250 186 l 250 294 q 245 406 250 374 q 239 497 240 439 q 231 606 236 585 q 226 674 231 608 q 215 805 221 740 q 208 871 210 869 l 206 872 q 197 872 201 872 q -57 851 92 872 q -96 849 -85 849 q -147 867 -147 849 q -142 878 -147 872 q -110 889 -132 889 q -85 893 -86 889 q -18 903 -82 897 q 221 924 214 922 q 345 937 265 926 q 485 951 425 947 q 576 958 575 957 z "},"U":{"ha":718,"x_min":42,"x_max":681,"o":"m 49 965 q 64 974 57 974 q 77 963 71 974 q 83 942 83 953 q 89 931 83 931 q 93 843 93 931 q 104 703 93 758 q 140 538 113 656 q 163 450 154 476 q 199 374 172 424 q 236 305 225 321 q 269 271 247 289 q 301 250 290 254 q 335 244 311 246 l 350 244 q 456 271 403 244 q 510 306 493 289 q 547 360 528 324 q 608 561 592 443 q 629 678 610 568 q 638 789 638 719 l 638 836 l 636 939 l 654 939 q 669 936 665 939 q 676 922 674 933 q 681 840 681 907 q 675 711 681 758 q 643 511 653 554 q 632 453 633 465 q 594 347 624 406 q 533 257 565 289 q 484 218 507 229 q 407 196 461 207 q 340 188 367 188 q 272 201 304 188 q 190 278 226 222 q 175 297 179 294 q 132 394 165 303 q 90 529 99 486 q 68 639 79 592 q 63 661 65 661 q 48 739 54 661 q 42 890 42 817 q 49 965 42 958 z "},"V":{"ha":740,"x_min":44,"x_max":700,"o":"m 47 956 q 63 968 53 968 q 96 935 81 968 q 110 901 101 924 q 132 842 118 879 q 156 781 146 806 q 179 728 168 750 q 203 671 190 706 q 242 568 235 585 q 265 503 263 513 q 276 485 268 493 q 294 444 285 476 q 349 313 319 374 q 389 249 378 251 q 403 250 400 246 q 449 342 414 261 q 501 479 483 424 q 532 561 506 494 q 650 886 629 832 q 689 931 668 931 q 696 929 693 931 q 700 919 700 928 q 668 817 700 908 q 618 693 624 693 q 615 690 615 693 q 616 683 615 686 q 615 678 617 679 q 594 628 613 676 q 567 547 575 581 q 515 410 556 510 q 456 268 475 310 q 389 188 415 188 q 374 192 382 188 q 351 211 363 197 q 313 284 339 229 q 278 364 286 339 q 264 396 268 396 q 244 438 260 396 q 217 503 240 451 q 206 533 206 531 q 185 592 206 542 q 160 649 165 643 q 153 664 153 656 q 112 772 153 672 q 71 874 71 871 q 58 899 68 883 q 44 943 44 907 q 47 956 44 950 z "},"W":{"ha":964,"x_min":43,"x_max":922,"o":"m 689 326 q 703 307 700 307 q 720 288 706 307 q 739 269 735 269 q 794 428 749 269 q 868 733 832 539 q 876 776 874 761 q 899 865 892 861 q 913 869 906 872 q 922 844 922 868 q 917 801 922 828 q 907 748 913 774 q 900 718 901 722 q 825 408 888 642 q 792 296 803 326 q 769 228 775 251 q 760 203 764 207 q 742 197 753 196 q 725 207 732 199 q 692 247 704 235 q 640 320 674 265 q 592 392 607 375 q 538 468 563 422 q 513 497 521 497 q 504 482 506 497 q 456 322 490 403 q 388 206 422 242 q 354 183 365 183 q 288 276 333 183 l 247 351 q 206 425 232 363 q 142 567 154 554 q 133 590 136 572 q 117 642 132 603 q 74 763 74 747 q 63 794 74 767 q 43 853 43 838 q 47 868 43 861 q 74 875 57 883 q 117 764 85 868 q 167 635 153 650 q 179 610 172 628 q 194 572 186 593 q 206 543 203 550 q 236 469 224 503 q 287 372 251 431 q 343 268 322 313 l 357 240 l 369 247 q 381 263 381 254 q 389 274 381 268 q 443 376 411 292 q 492 558 476 476 q 511 596 497 596 q 542 557 525 596 q 596 461 572 485 q 689 326 626 425 z "},"X":{"ha":792,"x_min":43,"x_max":751,"o":"m 128 932 q 143 943 139 943 q 201 883 156 943 q 282 758 246 824 q 300 731 292 739 l 322 703 q 364 651 343 676 q 386 625 385 625 q 421 664 388 625 q 501 751 447 694 q 550 808 550 803 q 588 850 550 815 q 633 883 622 883 q 642 868 642 883 q 617 822 642 847 q 593 792 593 799 q 564 758 593 785 q 507 696 538 732 q 476 663 479 663 q 443 633 475 663 q 414 597 414 606 l 414 594 l 415 592 q 428 574 418 579 q 457 543 440 568 q 540 438 500 485 q 590 376 579 390 q 668 293 608 353 q 751 186 751 211 q 744 155 751 167 q 728 143 736 143 q 710 163 717 143 q 658 222 703 185 q 529 360 610 267 q 514 383 514 378 q 478 434 514 388 q 426 500 443 481 q 393 532 411 518 l 375 549 l 357 528 q 144 264 226 379 q 54 176 81 176 q 43 193 43 176 q 115 299 43 217 q 150 339 126 315 q 175 369 175 364 q 192 390 175 374 q 247 454 208 407 q 300 517 285 501 q 347 582 347 571 l 347 585 q 346 588 346 586 q 318 628 344 593 q 279 678 292 664 q 235 738 269 688 q 201 792 201 789 q 182 825 201 797 q 160 853 163 853 q 125 903 147 853 q 120 921 119 917 q 128 932 121 925 z "},"Y":{"ha":567,"x_min":43,"x_max":526,"o":"m 125 1022 q 156 1013 142 1035 q 182 970 169 989 q 201 942 194 951 q 210 928 207 932 q 240 888 215 918 q 274 843 265 857 q 321 776 308 785 q 346 751 331 772 q 417 671 408 671 q 424 699 418 671 q 461 878 439 803 q 489 986 486 979 q 493 997 490 990 q 497 1008 496 1004 q 503 1014 499 1011 q 513 1015 507 1017 q 526 992 526 1014 q 517 942 526 974 q 474 761 474 797 q 463 697 474 756 q 454 647 454 656 q 460 628 454 642 q 467 606 467 611 q 456 583 467 597 q 440 553 446 574 q 418 450 435 533 q 401 369 404 375 q 397 342 397 358 q 392 328 397 335 q 389 311 386 321 q 388 299 392 299 q 386 294 383 299 q 385 289 389 289 q 381 267 381 289 q 367 204 379 238 q 336 171 354 171 q 328 174 333 171 q 319 189 319 179 q 331 226 319 196 q 375 417 351 283 q 404 565 393 515 q 410 596 410 593 q 371 651 410 613 q 332 697 332 693 q 310 726 332 704 q 272 772 289 747 q 194 868 222 840 q 189 879 189 874 q 183 890 189 885 q 167 913 178 896 q 144 951 156 931 q 128 976 132 971 q 115 1006 115 994 q 125 1022 115 1015 m 44 64 q 49 69 47 69 q 50 67 51 69 l 46 63 q 44 64 43 61 z "},"Z":{"ha":717,"x_min":43,"x_max":676,"o":"m 442 951 q 482 956 468 956 q 490 954 489 956 q 496 939 496 949 q 428 757 496 886 q 396 700 400 704 q 392 693 394 699 q 383 676 389 688 q 374 657 378 665 q 322 575 344 606 q 290 525 290 531 q 269 492 290 521 q 238 444 243 456 q 228 426 233 435 q 220 410 224 417 q 211 392 217 403 q 161 313 206 371 q 117 247 117 253 q 204 246 117 246 q 613 251 493 246 q 658 253 633 253 q 676 246 676 253 q 650 201 676 225 l 638 189 l 521 192 l 463 192 q 58 182 172 192 q 47 185 50 181 q 43 200 43 189 q 71 258 43 218 q 113 319 108 314 q 246 540 149 361 q 272 581 263 571 q 301 626 281 592 q 322 664 322 660 q 335 683 322 668 q 370 740 344 696 q 396 788 396 785 q 416 835 396 793 q 436 883 436 878 l 439 899 l 371 896 q 182 876 211 888 q 128 868 163 868 q 58 883 74 868 q 57 906 51 890 q 81 920 63 917 q 206 931 100 924 q 442 951 386 942 z "},"[":{"ha":357,"x_min":40,"x_max":317,"o":"m 40 904 q 41 924 40 918 q 48 935 42 931 q 60 940 54 939 q 82 942 65 940 q 176 944 115 944 l 240 944 l 244 928 q 246 915 246 922 q 231 901 246 904 q 168 894 217 897 q 96 888 104 892 q 89 833 89 883 q 94 767 89 794 q 104 608 99 749 q 113 413 107 535 q 122 226 119 292 q 126 167 125 175 q 136 156 128 158 q 156 154 140 154 q 257 164 244 154 q 282 167 263 169 q 311 153 306 165 q 311 126 317 139 q 281 110 304 114 q 182 106 258 107 l 139 106 q 88 116 96 106 q 76 181 81 126 q 71 313 71 250 q 65 431 71 378 q 58 592 61 471 q 51 707 56 704 q 44 794 47 711 q 40 904 40 876 z "},"\\":{"ha":579,"x_min":43,"x_max":538,"o":"m 43 925 q 53 942 43 929 q 67 954 63 954 q 85 938 72 954 q 104 901 97 921 q 176 763 119 864 q 218 683 204 713 q 263 592 238 638 q 300 517 288 546 q 351 411 343 411 q 370 377 353 411 q 407 306 388 343 q 431 265 426 269 q 463 217 436 260 q 503 150 490 174 q 519 124 513 131 q 531 103 525 121 q 538 75 538 85 q 528 54 538 65 q 511 43 518 43 l 508 43 q 485 79 503 44 q 438 160 469 110 q 396 224 407 211 q 335 336 367 256 q 313 378 318 372 q 246 510 294 393 q 235 532 239 528 q 194 611 233 533 l 156 689 q 144 711 149 696 q 113 775 143 718 q 86 828 86 825 q 82 836 86 832 q 61 878 79 838 q 43 925 43 919 z "},"]":{"ha":414,"x_min":33,"x_max":372,"o":"m 246 1028 q 263 1028 258 1032 q 274 960 265 1026 q 286 881 279 918 q 299 796 293 844 q 310 715 306 726 q 328 529 314 696 q 347 317 342 363 q 357 224 350 293 q 368 131 364 154 q 372 93 372 103 q 369 76 372 88 l 364 60 l 339 61 q 188 75 204 75 q 138 79 150 75 q 128 106 121 88 q 158 113 131 113 l 186 113 q 267 107 254 110 q 313 103 288 103 l 333 103 l 331 118 q 318 246 329 129 q 313 288 315 275 q 290 544 301 343 l 285 624 q 272 693 282 632 q 260 789 263 754 q 252 852 257 818 q 243 925 247 886 q 236 986 238 985 q 222 989 236 989 q 193 986 215 989 q 115 982 156 982 q 57 986 67 982 q 46 1014 33 997 q 76 1018 51 1022 l 96 1018 q 246 1028 207 1018 z "},"^":{"ha":546,"x_min":40,"x_max":507,"o":"m 233 1051 q 250 1067 242 1067 q 274 1049 257 1067 q 301 1010 290 1031 q 422 800 318 985 q 501 640 482 706 q 507 608 507 615 q 490 575 507 581 q 483 574 488 574 q 444 653 476 574 q 396 749 428 696 q 340 853 376 781 q 267 983 324 886 q 254 993 261 993 q 227 949 249 993 q 194 872 206 904 q 175 833 185 846 q 129 767 167 824 q 81 699 92 711 l 58 676 q 42 704 40 701 q 74 750 44 708 q 106 794 103 792 q 155 880 115 803 q 194 968 194 957 q 233 1051 194 982 z "},"_":{"ha":485,"x_min":36,"x_max":447,"o":"m 371 210 q 421 214 389 214 l 447 215 l 447 199 q 404 163 447 163 q 188 154 389 163 q 81 150 110 150 q 43 154 50 150 q 36 174 36 158 q 46 190 36 186 q 90 194 56 194 l 124 194 l 138 194 q 371 210 274 194 z "},"`":{"ha":347,"x_min":40,"x_max":310,"o":"m 50 1106 q 63 1110 56 1110 q 104 1072 76 1110 q 138 1029 117 1057 q 177 978 160 1001 q 210 933 194 956 q 254 871 243 883 q 310 779 310 799 q 303 759 310 767 q 289 751 296 751 q 265 767 276 751 q 206 851 246 796 q 147 933 167 906 q 101 996 124 971 q 40 1089 40 1063 q 50 1106 40 1099 z "},"a":{"ha":479,"x_min":40,"x_max":440,"o":"m 213 539 q 183 544 201 544 q 111 517 142 544 q 85 481 100 507 l 71 457 l 71 406 q 81 331 71 356 q 110 274 96 292 q 151 243 125 257 q 189 235 168 235 q 231 244 213 235 q 291 303 264 263 q 318 393 318 344 q 314 429 318 411 q 292 482 307 453 q 268 521 278 511 q 240 533 256 533 q 213 539 226 533 m 40 407 q 71 506 40 461 q 140 564 101 550 q 183 572 164 572 q 222 567 194 572 q 242 564 233 564 q 321 489 289 564 q 342 388 342 440 q 368 278 342 332 q 395 232 385 243 q 419 221 406 221 q 435 215 431 221 q 436 200 440 208 q 413 188 431 188 q 367 213 388 188 q 343 255 361 219 q 325 294 325 290 q 304 276 325 308 q 253 219 276 235 q 190 203 229 203 q 139 213 158 203 q 67 287 94 235 q 40 407 40 339 z "},"b":{"ha":494,"x_min":43,"x_max":457,"o":"m 51 979 q 67 989 61 989 q 78 942 72 989 q 89 833 85 894 q 94 764 93 771 q 102 679 97 744 q 111 560 107 614 q 118 507 115 507 q 125 478 119 507 l 129 447 q 165 481 132 447 q 289 538 222 538 q 390 506 344 538 q 416 484 408 493 q 435 453 424 475 q 456 379 453 418 q 457 344 457 367 q 410 235 457 286 q 274 174 350 174 l 267 174 q 191 189 236 174 q 121 222 146 204 q 81 279 81 250 q 81 283 81 281 l 82 285 q 94 292 83 292 q 121 279 108 292 q 186 238 143 254 q 269 221 229 221 q 338 235 308 221 q 418 353 418 274 q 331 483 418 453 q 285 493 307 493 q 232 479 260 493 q 142 365 161 446 q 113 321 131 321 q 99 354 99 321 q 94 393 99 375 q 64 622 81 454 q 44 889 47 789 q 43 946 43 917 q 51 979 43 971 z "},"c":{"ha":415,"x_min":40,"x_max":378,"o":"m 178 567 q 215 574 197 574 l 238 574 q 357 532 308 569 q 376 504 375 519 q 376 493 378 494 q 367 492 375 492 q 342 504 356 492 q 224 544 297 544 q 151 522 194 544 q 94 460 117 504 q 71 372 71 417 q 78 329 71 347 q 117 274 85 310 q 172 228 149 238 q 240 214 201 214 q 321 231 283 214 q 351 239 338 239 q 363 233 363 239 q 340 210 363 228 q 303 186 317 192 q 235 176 274 176 q 194 181 211 176 q 100 240 143 193 q 40 365 40 304 q 43 397 40 375 q 72 481 49 439 q 119 538 96 524 q 178 567 149 556 z "},"d":{"ha":432,"x_min":40,"x_max":394,"o":"m 260 481 q 201 499 225 499 q 174 497 185 499 q 107 463 131 494 q 78 372 78 425 q 103 289 78 325 q 149 253 117 268 q 208 239 181 239 q 326 292 269 239 q 358 339 358 319 q 354 363 358 347 q 260 481 331 442 m 300 882 q 313 892 306 892 q 331 864 324 892 q 344 792 339 836 q 351 742 350 747 q 364 628 353 733 q 389 411 381 457 q 394 356 394 379 q 385 307 394 331 q 343 252 374 282 q 279 206 313 222 q 206 190 249 190 q 164 193 175 190 q 128 210 153 196 q 53 294 75 239 q 40 363 40 326 q 67 469 40 417 q 101 510 75 488 q 140 536 128 533 q 201 543 178 543 q 231 540 214 543 q 321 489 278 531 q 338 486 338 472 q 294 857 338 532 q 300 882 292 871 z "},"e":{"ha":447,"x_min":43,"x_max":406,"o":"m 315 529 q 275 533 307 533 q 160 468 199 533 q 150 443 149 449 q 183 433 151 438 q 239 428 214 428 l 251 428 q 296 438 276 431 q 332 460 314 443 q 350 489 350 478 q 339 512 350 499 q 315 529 328 525 m 225 569 q 257 572 236 572 q 273 572 261 572 q 290 571 285 571 q 350 561 338 569 q 385 486 385 533 q 381 465 385 474 q 357 428 375 450 q 253 382 329 390 q 217 379 222 379 q 179 383 204 379 q 140 390 147 390 q 132 381 132 390 q 150 317 132 353 q 178 285 156 306 q 218 254 200 265 q 278 238 243 238 q 292 239 288 238 q 319 246 301 243 q 367 263 331 247 q 401 269 394 276 q 406 261 406 265 q 378 221 406 244 q 322 197 361 206 q 282 192 296 192 q 239 197 281 192 q 171 228 208 200 q 118 288 133 257 q 92 383 92 340 l 92 404 l 74 407 q 43 429 43 414 q 50 447 43 436 q 61 457 56 456 q 85 456 67 458 l 111 453 l 119 471 q 167 532 132 499 q 225 569 203 565 z "},"f":{"ha":444,"x_min":39,"x_max":406,"o":"m 300 872 q 332 876 314 876 q 386 861 378 876 q 389 850 389 857 q 383 834 389 842 q 372 826 378 826 q 365 829 368 826 q 339 833 361 833 q 296 829 313 833 q 215 733 239 814 q 203 640 203 690 q 206 592 203 608 q 217 513 210 567 q 226 433 224 458 l 232 396 l 297 394 q 406 367 406 392 q 394 349 406 360 q 351 339 382 339 q 289 343 331 339 l 243 347 l 246 322 q 254 281 249 299 q 268 160 268 214 l 268 150 q 271 111 268 111 q 279 26 279 111 q 276 -11 279 0 q 263 -29 271 -25 q 257 -31 261 -31 q 245 -21 250 -31 q 238 6 240 -11 q 234 38 236 22 q 231 74 232 54 q 229 100 231 93 q 208 301 213 283 l 199 339 l 150 342 q 50 358 61 347 q 51 385 39 369 q 88 394 60 394 q 167 392 89 394 l 186 390 l 185 414 q 168 560 185 438 q 164 619 164 589 q 181 746 164 686 q 224 831 197 806 q 300 872 250 857 z "},"g":{"ha":465,"x_min":40,"x_max":425,"o":"m 154 629 q 190 632 185 632 q 239 621 214 632 q 263 596 263 608 q 256 579 263 589 q 232 579 250 572 q 185 588 210 588 q 112 569 144 588 q 78 524 79 551 l 78 510 q 113 428 78 458 q 172 403 138 403 q 231 428 206 403 q 257 465 250 446 q 269 533 264 485 q 283 599 275 592 q 304 600 293 606 q 314 531 310 597 q 332 422 315 472 q 355 363 340 399 q 381 294 369 326 q 403 224 393 263 q 412 196 407 210 q 419 176 417 182 q 422 155 421 169 q 425 114 424 140 l 425 100 q 394 -32 425 25 q 353 -86 383 -54 q 299 -131 322 -118 q 260 -140 279 -140 l 238 -140 q 108 -75 157 -136 q 51 54 56 -8 l 51 63 q 82 144 51 104 q 88 154 86 150 q 90 160 90 158 q 94 166 90 163 q 107 172 99 169 q 206 204 165 201 l 242 207 l 251 192 q 261 171 261 178 q 232 161 261 161 q 140 139 181 161 q 89 63 89 113 q 107 -4 89 32 q 229 -99 150 -93 l 243 -99 q 325 -56 276 -99 q 369 1 357 -28 q 382 90 382 28 q 376 154 381 150 q 369 178 369 161 q 329 307 369 207 q 294 397 300 379 q 281 431 282 431 q 269 418 276 431 q 165 356 228 356 q 49 444 94 356 q 40 494 40 461 q 46 544 40 522 q 84 602 54 579 q 154 629 114 625 z "},"h":{"ha":442,"x_min":42,"x_max":401,"o":"m 50 822 q 67 835 61 835 q 88 767 82 835 q 92 724 89 760 q 97 672 94 689 q 112 560 101 644 q 131 413 122 475 q 144 347 140 351 q 169 363 147 344 q 264 403 222 403 q 344 367 304 403 q 371 328 363 351 q 392 242 379 306 q 401 174 401 188 q 397 154 401 165 q 387 140 393 144 q 374 135 381 135 q 367 143 368 136 q 360 192 365 147 q 335 301 353 267 q 307 335 322 324 q 294 342 307 332 q 260 351 283 351 q 190 327 224 351 q 157 268 157 303 q 146 226 157 250 q 126 201 135 201 l 125 201 q 111 254 111 203 q 100 336 111 275 q 49 726 71 525 q 45 763 47 740 q 43 790 43 786 q 50 822 42 810 z "},"i":{"ha":172,"x_min":43,"x_max":135,"o":"m 86 664 q 92 664 89 661 q 89 667 94 667 q 86 664 83 667 m 67 704 q 92 710 78 710 q 122 700 108 710 q 135 675 135 690 q 134 672 135 674 q 133 668 133 669 q 117 634 131 650 q 86 618 104 618 q 64 625 75 618 q 44 647 47 635 l 44 650 q 43 654 43 653 q 51 683 43 667 q 67 704 58 700 m 61 569 q 69 581 61 575 q 83 586 76 586 q 96 579 92 586 q 113 497 101 567 q 126 385 124 426 q 129 310 129 360 q 117 207 129 228 q 99 190 106 190 q 86 228 86 190 q 88 253 86 243 q 90 300 90 275 q 79 447 90 375 q 61 569 61 551 z "},"j":{"ha":490,"x_min":40,"x_max":451,"o":"m 346 822 q 353 824 349 824 q 365 817 360 824 q 372 797 369 811 q 376 770 375 782 q 380 735 378 758 q 383 701 382 713 q 406 564 397 599 q 451 206 451 365 q 444 125 451 157 q 386 7 428 51 q 333 -32 367 -12 q 289 -49 304 -49 q 280 -48 286 -49 q 269 -47 274 -47 q 146 7 204 -42 q 94 54 110 36 q 61 106 79 72 q 40 179 40 144 q 58 268 40 232 q 85 293 63 276 q 138 307 104 307 q 171 299 171 307 q 159 279 171 289 q 131 265 147 269 q 91 241 103 258 q 79 189 79 224 l 79 175 q 114 81 82 122 q 185 24 138 51 q 274 -4 232 -4 q 310 3 296 -4 q 413 207 413 53 q 408 274 413 239 q 367 538 403 338 q 335 756 339 696 q 333 785 333 767 q 346 822 333 818 z "},"k":{"ha":394,"x_min":42,"x_max":356,"o":"m 44 613 q 64 611 56 624 q 83 456 71 596 q 90 413 86 417 q 117 422 93 410 q 221 494 151 440 q 270 541 238 507 q 311 588 303 575 q 324 599 319 601 q 328 582 328 599 l 328 574 q 308 542 328 564 q 243 478 288 517 q 172 422 199 440 q 154 407 160 414 q 151 399 150 403 q 164 385 151 396 q 214 331 186 361 q 250 293 246 293 q 280 267 254 293 q 317 228 306 242 q 343 194 329 211 q 356 167 356 181 q 343 144 356 144 q 321 171 339 144 q 244 253 308 189 q 154 346 190 307 q 113 381 121 381 q 100 346 96 381 q 110 224 110 258 q 110 200 110 208 q 108 185 110 192 q 105 178 106 179 q 99 171 104 176 q 92 161 94 165 q 81 194 79 176 l 81 207 q 78 267 81 225 q 65 371 69 360 q 61 400 61 381 q 56 451 61 413 q 42 590 42 547 q 44 613 42 610 z "},"l":{"ha":199,"x_min":43,"x_max":158,"o":"m 51 913 q 76 908 74 928 q 82 835 76 904 q 106 629 85 794 q 113 508 110 599 q 126 368 117 415 q 149 257 138 322 l 158 199 q 148 178 156 192 q 136 157 140 164 l 126 168 q 112 224 118 178 q 103 278 106 269 q 71 524 81 354 q 60 674 63 660 q 43 860 46 754 l 43 882 q 51 913 43 907 z "},"m":{"ha":738,"x_min":-10,"x_max":704,"o":"m 19 544 q 33 546 32 547 l 39 544 q 56 544 46 544 q 74 543 65 543 q 158 516 119 542 q 214 447 196 490 q 225 421 224 422 q 228 422 225 419 q 236 427 231 424 q 246 435 242 431 q 306 458 274 458 q 326 457 319 458 q 404 401 383 446 l 417 378 q 453 411 433 393 q 576 472 518 472 l 586 472 q 635 458 618 469 q 667 415 653 446 q 703 235 693 364 q 704 204 704 221 q 694 176 704 190 l 682 161 l 672 172 q 663 218 663 183 q 640 361 663 286 q 576 410 625 410 q 524 397 554 410 q 478 369 494 385 q 454 335 467 358 q 442 303 442 313 q 431 269 442 297 q 410 243 421 243 q 392 294 396 243 q 367 367 389 339 q 313 401 346 396 q 301 403 308 403 q 242 325 257 403 q 211 258 229 258 q 193 335 199 258 q 171 417 190 381 q 123 471 150 457 q 39 486 96 485 q 4 493 18 486 q -10 511 -10 500 q -1 531 -10 521 q 19 544 8 542 z "},"n":{"ha":526,"x_min":-10,"x_max":475,"o":"m 31 517 q 74 522 67 522 q 122 511 93 522 q 176 467 151 500 q 207 421 201 433 q 213 413 208 413 q 239 435 215 413 q 328 488 294 488 l 333 488 q 390 458 361 481 q 432 410 418 436 q 468 269 453 367 q 475 215 475 225 q 471 192 475 203 q 451 164 461 164 q 426 236 435 164 q 385 389 413 357 q 351 418 372 404 q 319 432 329 432 q 285 413 307 432 q 253 376 263 394 q 238 321 243 360 q 224 272 235 296 q 203 249 213 249 q 189 306 189 249 q 151 419 189 368 q 114 453 132 446 q 50 461 96 461 l -1 461 l -7 479 q -10 492 -10 490 q 31 517 -10 508 z "},"o":{"ha":376,"x_min":40,"x_max":339,"o":"m 275 446 q 181 488 231 488 q 150 481 163 488 q 85 411 111 463 q 74 374 74 389 q 75 347 74 358 q 83 296 78 313 q 111 249 89 279 q 178 213 140 213 q 227 220 208 213 q 268 251 246 228 q 311 338 311 296 q 304 388 311 356 q 292 425 296 417 q 275 446 289 433 m 139 511 q 186 521 160 521 q 273 492 232 521 q 326 421 314 464 q 332 400 329 414 q 336 383 335 386 q 339 351 339 372 q 332 289 339 306 q 272 210 314 250 q 174 174 232 174 q 122 188 142 174 q 74 243 101 201 q 40 344 40 292 q 49 406 40 381 q 63 438 57 429 q 90 472 68 447 q 139 511 113 499 z "},"p":{"ha":386,"x_min":43,"x_max":349,"o":"m 231 456 q 197 467 206 467 q 124 446 165 467 q 112 435 114 440 q 110 407 110 431 q 118 308 110 360 q 136 246 126 256 q 186 235 147 235 q 219 238 208 235 q 297 299 272 249 q 307 347 307 318 q 299 388 307 372 q 269 426 289 406 q 231 456 249 446 m 200 515 q 228 513 208 518 q 294 472 261 503 q 340 407 326 442 q 349 357 349 385 q 318 261 349 324 l 289 232 q 240 199 263 207 q 175 190 218 190 l 136 190 l 139 176 q 154 44 154 96 q 151 7 153 14 q 140 -7 150 0 q 119 -12 126 -17 q 108 58 111 -8 q 83 219 103 190 q 76 242 76 229 q 78 258 76 247 q 79 278 79 269 l 79 288 q 76 319 79 293 q 72 358 74 344 q 56 422 69 403 l 43 438 l 54 450 q 103 480 65 461 q 168 507 140 499 q 200 515 199 515 z "},"q":{"ha":419,"x_min":40,"x_max":379,"o":"m 253 424 q 193 435 226 435 q 128 418 146 435 q 97 339 97 390 q 103 315 97 322 q 206 257 142 257 q 256 268 239 257 q 288 311 272 279 q 300 350 300 338 q 299 367 300 360 q 284 403 293 392 q 253 424 275 414 m 132 468 q 186 478 154 478 q 281 458 235 478 q 301 446 296 451 q 315 422 307 440 q 330 397 322 408 q 340 381 338 386 q 343 358 342 375 q 346 304 344 342 q 361 126 349 235 q 379 -71 379 -25 q 375 -104 379 -92 q 358 -122 369 -122 q 346 -110 350 -122 q 339 -39 342 -99 q 317 197 339 -37 l 310 253 l 294 236 q 211 203 258 203 q 96 251 151 203 q 49 329 64 279 q 40 375 40 356 q 60 401 40 401 l 64 401 q 78 414 74 400 q 99 444 82 428 q 132 468 115 461 z "},"r":{"ha":235,"x_min":40,"x_max":196,"o":"m 135 515 q 160 522 153 522 q 183 510 171 522 q 196 485 196 497 q 182 468 196 468 q 172 471 181 468 q 149 475 164 475 q 119 459 135 475 q 101 426 104 443 q 101 420 101 425 q 100 413 100 415 q 117 253 100 378 q 119 224 119 228 q 110 190 119 204 q 97 189 104 182 q 74 294 82 201 q 67 349 68 346 q 49 422 58 371 q 40 497 40 474 q 42 507 40 506 q 56 513 47 514 q 71 493 68 511 q 81 469 75 468 q 86 476 83 469 q 135 515 96 500 z "},"s":{"ha":385,"x_min":40,"x_max":347,"o":"m 139 535 q 164 538 158 538 q 213 524 185 538 q 244 488 244 508 q 233 471 244 471 q 204 483 225 471 q 150 500 178 500 q 93 474 115 500 q 79 440 79 458 q 107 411 79 411 q 169 422 114 411 q 225 431 207 431 q 279 417 246 431 q 347 319 347 389 q 323 247 347 281 q 260 194 299 213 q 225 185 235 185 q 219 185 222 185 q 214 186 217 186 q 179 197 193 189 q 143 226 165 204 q 108 281 108 257 q 138 283 108 313 q 224 233 185 233 q 290 265 257 233 q 311 311 311 286 q 268 372 311 353 q 210 382 249 382 q 146 374 175 382 q 107 367 122 367 q 67 378 82 367 q 40 431 40 399 q 68 497 40 465 q 139 535 96 528 z "},"t":{"ha":332,"x_min":43,"x_max":292,"o":"m 142 783 q 158 794 147 793 q 172 786 169 794 q 175 678 175 778 q 179 543 175 597 l 182 510 l 222 511 l 233 511 q 292 486 292 511 q 226 458 292 458 q 188 451 188 458 q 188 431 188 446 q 190 388 189 417 q 193 336 192 360 l 199 236 l 189 215 q 161 189 175 189 q 157 190 158 189 q 153 303 153 194 q 149 432 153 415 l 144 451 l 100 451 q 54 456 65 451 q 43 472 43 460 q 69 499 43 499 q 113 501 82 499 l 140 504 l 138 639 l 138 701 q 142 783 138 775 z "},"u":{"ha":407,"x_min":40,"x_max":368,"o":"m 46 532 q 64 539 56 539 q 76 526 74 539 q 83 449 79 514 q 104 326 90 339 q 117 300 107 324 q 145 256 125 278 q 176 235 165 235 q 213 264 193 235 q 222 363 221 276 q 222 406 222 383 q 223 444 222 429 q 224 463 224 460 q 231 479 224 472 q 247 486 239 486 q 256 483 253 486 q 268 382 261 478 q 278 284 274 307 q 300 247 283 261 q 319 240 307 240 q 357 247 336 240 q 366 248 364 250 q 368 236 368 246 q 353 199 368 213 q 318 186 339 186 q 257 222 281 186 q 244 239 247 239 q 231 222 240 239 q 168 182 206 182 q 130 201 153 182 q 92 249 107 221 q 74 275 79 269 q 51 359 63 283 q 40 490 40 435 q 46 532 40 528 z "},"v":{"ha":335,"x_min":42,"x_max":296,"o":"m 47 490 q 42 506 42 497 q 48 524 42 517 q 64 532 54 532 q 103 474 76 532 q 121 439 113 446 q 164 352 126 436 q 201 261 201 268 q 207 251 201 257 q 210 250 208 250 q 226 289 215 250 q 256 424 251 379 q 289 504 264 504 q 296 481 296 504 q 290 422 296 454 q 229 210 258 254 q 208 188 217 188 q 193 197 201 188 q 148 281 183 208 q 107 372 113 353 q 96 397 101 392 q 72 443 89 404 q 47 490 60 471 z "},"w":{"ha":497,"x_min":39,"x_max":460,"o":"m 43 454 q 60 460 49 463 q 88 390 74 458 q 142 268 107 307 q 171 247 161 247 q 196 275 182 247 q 213 338 211 303 q 218 377 215 368 q 231 386 221 386 q 257 335 242 386 q 282 274 265 307 q 315 231 300 238 q 351 222 335 222 q 400 246 385 222 q 419 306 410 267 q 428 349 428 339 q 424 374 428 358 q 414 400 418 400 q 410 408 410 400 q 431 432 410 432 q 451 418 447 432 q 460 354 460 393 q 454 304 460 322 q 410 201 433 228 q 343 175 388 175 q 239 254 281 175 l 231 271 l 219 249 q 193 210 208 222 q 163 193 176 193 q 124 215 146 193 q 76 294 100 238 q 39 438 39 386 q 43 454 39 450 z "},"x":{"ha":560,"x_min":42,"x_max":521,"o":"m 213 547 q 251 539 246 539 q 274 519 257 539 q 294 499 290 499 q 301 489 299 499 q 322 496 303 478 q 436 540 369 540 q 489 536 476 540 q 501 517 501 532 q 494 494 501 500 q 465 488 486 488 q 440 489 450 488 l 394 494 l 369 469 q 337 428 343 444 q 331 369 331 413 l 331 321 q 383 272 356 296 l 425 275 q 466 279 439 276 q 494 282 493 282 q 501 283 497 282 q 507 283 506 283 q 521 275 521 283 q 507 251 521 269 q 410 215 478 215 q 358 221 374 215 q 321 247 343 226 q 300 258 307 258 q 269 239 289 258 q 154 194 221 194 q 60 243 88 194 q 47 271 47 261 q 56 278 47 278 q 99 263 68 278 q 158 247 129 247 q 256 292 214 247 l 275 313 l 271 374 q 265 428 268 417 q 246 457 261 440 q 200 486 226 479 q 113 494 174 493 q 58 497 69 494 q 43 508 47 499 q 42 517 42 511 q 144 551 42 551 q 213 547 194 551 z "},"y":{"ha":293,"x_min":43,"x_max":256,"o":"m 46 533 q 60 540 50 540 q 85 520 67 540 q 117 478 104 500 q 161 421 129 460 q 197 382 193 382 q 208 415 201 382 q 215 472 215 449 q 223 501 215 489 q 239 513 231 513 q 253 503 247 513 q 256 488 256 497 q 243 396 256 475 q 233 340 240 382 q 215 269 229 313 q 189 206 200 225 q 157 168 179 189 q 119 147 135 147 q 103 158 103 147 q 124 188 103 171 q 158 235 140 203 q 182 301 175 268 q 185 321 185 318 q 174 342 185 331 q 67 478 122 397 q 43 525 43 514 q 46 533 43 528 z "},"z":{"ha":419,"x_min":40,"x_max":381,"o":"m 113 646 q 121 649 114 653 q 136 647 122 647 q 164 648 144 647 q 190 649 183 649 q 203 647 201 649 q 215 649 206 646 q 224 647 224 651 q 249 635 228 639 q 278 622 272 628 q 283 599 283 617 q 271 552 283 583 q 249 513 258 521 q 242 501 242 507 q 249 494 242 494 q 291 473 265 494 q 338 419 317 451 q 381 261 381 354 q 369 178 381 213 q 331 92 354 122 q 265 39 307 61 q 199 25 238 25 q 133 43 164 25 q 53 119 79 74 q 40 163 40 143 l 40 179 q 54 231 42 215 q 83 250 67 250 q 93 246 89 250 q 89 213 97 242 q 81 176 81 188 q 82 161 81 167 q 115 99 90 121 q 200 65 157 65 q 242 72 225 65 q 324 156 297 94 q 338 198 336 185 q 340 254 340 211 q 325 349 340 308 q 197 456 282 456 l 193 456 l 185 456 q 157 474 157 456 q 185 501 157 488 q 226 541 203 511 q 249 583 249 571 q 247 588 249 586 q 163 600 235 600 q 150 599 158 600 q 138 599 142 599 q 126 598 133 599 q 115 597 118 597 q 78 617 78 597 q 99 639 78 639 q 113 646 110 639 z "},"{":{"ha":417,"x_min":42,"x_max":375,"o":"m 121 379 q 122 382 122 381 q 112 394 122 388 q 94 401 101 401 q 89 396 89 401 q 103 384 89 392 q 121 379 118 376 m 222 804 q 263 807 233 807 q 304 789 304 807 q 303 785 304 788 q 303 782 303 783 q 297 772 301 774 q 268 771 292 771 q 222 760 235 771 q 211 739 211 750 q 213 713 211 725 q 224 638 215 668 q 236 588 233 600 q 250 572 239 575 q 251 563 261 569 q 243 499 243 556 q 229 415 242 442 q 203 376 217 390 q 190 349 190 365 q 192 318 190 332 l 192 301 q 181 215 192 269 q 169 132 169 164 q 176 90 169 110 q 193 67 183 69 q 201 58 201 64 q 215 40 201 53 q 239 22 228 26 q 250 21 242 21 q 301 28 269 21 q 346 42 333 35 q 375 39 375 60 q 353 -7 375 13 q 310 -22 344 -14 q 250 -29 276 -29 q 203 -11 226 -29 q 143 63 164 19 q 126 114 126 97 q 127 124 126 117 q 128 138 128 132 q 140 222 131 181 q 150 292 150 267 l 150 301 l 149 338 l 125 340 q 70 360 99 343 q 42 400 42 376 q 47 419 42 410 q 106 439 57 439 q 149 419 129 439 q 171 401 167 401 q 192 426 176 401 q 207 489 207 451 q 200 546 207 528 q 192 583 192 568 q 185 621 192 603 q 172 688 182 628 q 168 729 168 717 q 172 754 168 742 q 222 804 186 792 z "},"|":{"ha":133,"x_min":36,"x_max":96,"o":"m 38 749 q 50 757 40 758 q 65 744 60 756 q 81 633 81 708 q 88 592 81 600 q 88 574 96 582 q 81 517 81 567 q 82 394 81 453 q 88 150 85 254 l 88 113 q 82 71 88 75 q 75 58 75 68 q 50 53 75 49 l 46 149 q 39 569 39 482 q 36 681 36 575 q 36 712 36 696 q 36 739 36 728 l 38 749 z "},"}":{"ha":331,"x_min":43,"x_max":289,"o":"m 58 858 q 83 863 63 863 q 146 825 122 863 q 166 776 161 801 q 174 686 171 751 q 188 542 175 632 q 207 442 200 453 q 232 443 210 438 q 267 439 253 449 q 289 403 289 424 q 286 390 289 399 q 265 369 281 379 q 238 358 250 358 q 227 354 229 358 q 225 329 225 350 q 256 189 225 297 q 263 115 263 161 q 229 1 263 43 q 133 -40 203 -33 q 99 -43 100 -43 q 76 -36 85 -43 q 55 -14 67 -31 q 43 8 43 3 q 53 13 43 13 q 86 4 71 13 q 113 -1 96 -1 q 132 0 124 -1 q 211 43 193 6 q 224 103 224 68 q 197 239 224 151 q 186 329 189 268 q 175 401 185 388 q 165 430 169 411 q 156 473 160 449 q 150 506 153 497 q 135 676 136 578 q 120 778 132 749 q 74 825 108 808 q 53 849 53 835 q 58 858 53 854 z "},"~":{"ha":488,"x_min":35,"x_max":453,"o":"m 78 444 q 146 467 119 467 q 181 458 161 467 q 212 431 189 454 q 243 396 235 408 q 268 383 244 394 q 314 374 289 374 q 374 389 340 374 q 410 414 406 404 q 444 447 426 447 q 453 433 453 447 q 428 382 453 407 q 361 340 403 357 q 306 326 325 326 q 267 333 292 326 q 235 349 246 340 q 185 400 225 357 q 142 424 161 424 q 88 406 126 424 q 50 393 61 393 q 36 401 40 393 q 35 408 35 404 q 78 444 35 426 z "}," ":{"ha":403,"x_min":0,"x_max":0,"o":""},"ª":{"ha":322,"x_min":39,"x_max":285,"o":"m 142 785 q 106 803 124 803 q 76 785 76 803 q 90 749 76 772 q 121 724 104 724 q 148 735 135 724 q 161 757 161 746 q 142 785 161 765 m 39 760 q 86 832 39 800 q 113 838 97 838 q 144 831 131 838 q 179 796 158 825 q 204 747 200 767 q 224 714 207 733 q 249 696 240 696 q 261 697 256 696 l 269 697 q 285 689 285 697 q 279 672 285 682 q 251 656 272 658 l 229 651 l 179 706 l 158 690 q 128 676 139 676 q 123 677 126 676 q 117 678 119 678 q 76 695 99 681 q 46 724 53 710 q 39 760 39 735 z "},"°":{"ha":611,"x_min":42,"x_max":572,"o":"m 472 831 q 442 836 450 836 q 401 792 403 836 l 401 779 q 426 721 401 747 q 469 700 444 700 q 522 726 497 700 q 535 760 536 742 q 510 801 532 778 q 472 831 489 825 m 467 653 q 388 689 418 653 q 358 775 358 725 q 357 819 358 813 q 374 849 354 832 q 417 871 394 867 q 461 876 439 876 q 531 844 499 876 q 571 768 565 808 q 572 763 571 767 q 572 757 572 758 q 537 684 572 715 q 467 653 501 653 m 49 -164 q 42 -164 46 -167 q 46 -161 44 -162 q 49 -164 51 -161 z "},"²":{"ha":364,"x_min":40,"x_max":325,"o":"m 140 758 q 118 774 129 774 q 92 757 106 774 q 78 731 78 742 q 107 717 78 717 q 134 725 117 717 q 151 739 151 733 q 140 758 151 744 m 143 960 q 178 965 171 965 q 203 960 186 965 q 230 938 215 954 q 247 913 244 922 q 251 871 251 892 q 229 778 251 824 l 213 739 q 228 715 213 733 q 257 699 243 699 q 293 710 268 699 q 319 721 315 721 q 325 708 325 721 q 301 673 325 697 q 264 646 278 649 q 251 644 260 644 q 199 678 224 644 q 172 703 179 703 q 140 692 163 703 q 89 679 114 679 q 53 693 63 679 q 40 729 40 707 q 97 807 40 778 q 126 815 114 815 q 171 786 146 815 l 189 767 l 200 790 q 215 850 211 810 l 218 888 l 201 903 q 174 918 186 918 q 138 911 165 918 q 107 906 119 906 q 90 924 90 906 q 143 960 90 946 z "},"³":{"ha":310,"x_min":40,"x_max":271,"o":"m 82 924 q 113 932 82 932 q 125 931 117 932 q 136 931 133 931 q 174 919 163 931 q 189 888 189 904 q 175 839 189 868 q 176 831 172 833 q 192 825 179 828 q 256 801 242 813 q 271 764 271 790 q 217 660 271 711 q 178 635 192 635 l 169 635 q 44 686 44 650 q 58 697 44 697 q 96 690 75 697 q 156 679 138 679 q 210 701 188 679 q 233 753 233 722 q 217 776 233 769 q 146 790 182 790 q 125 788 136 790 q 106 785 108 785 q 88 794 88 785 q 114 822 88 806 q 153 868 153 844 q 126 883 153 883 q 88 878 113 883 q 61 874 63 874 q 49 872 53 872 q 44 873 46 872 q 41 876 42 874 q 40 882 40 878 q 65 913 40 903 q 82 924 82 919 z "},"´":{"ha":204,"x_min":39,"x_max":165,"o":"m 138 872 l 150 878 q 159 869 153 878 q 165 857 165 861 q 147 829 165 853 q 89 713 106 779 q 49 667 78 667 q 42 679 39 667 q 74 776 50 718 q 113 851 97 833 q 138 872 122 867 z "},"¹":{"ha":268,"x_min":42,"x_max":229,"o":"m 58 924 q 113 938 63 924 q 167 953 164 953 q 193 956 183 956 q 222 950 211 956 q 229 938 229 946 q 225 907 229 931 q 210 840 222 886 q 192 686 192 783 q 188 648 190 657 q 172 624 185 639 q 156 611 161 611 q 146 636 146 611 q 147 658 146 650 q 179 854 156 785 q 196 910 196 901 q 181 914 196 914 q 132 905 167 914 q 94 892 97 896 q 64 882 89 882 q 42 896 42 882 q 47 915 42 906 q 58 924 53 924 z "},"º":{"ha":293,"x_min":39,"x_max":258,"o":"m 201 822 q 156 836 178 836 q 129 832 144 836 q 81 760 81 814 q 107 699 81 724 q 150 679 124 682 q 168 678 157 678 q 208 694 194 678 q 226 749 221 711 q 229 776 229 771 q 201 822 229 807 m 121 863 q 158 872 135 872 q 210 860 185 872 q 249 831 236 849 q 258 790 258 815 q 254 742 258 772 q 204 650 246 676 q 142 636 182 636 l 101 636 l 83 654 q 51 701 69 668 q 39 743 39 726 q 40 764 39 754 q 54 834 44 814 q 86 854 64 854 l 89 854 q 121 863 108 854 z "},"À":{"ha":856,"x_min":43,"x_max":815,"o":"m 43 889 q 46 892 43 892 q 47 889 47 892 q 46 888 47 888 q 43 889 43 888 m 279 858 q 289 863 283 863 q 369 788 310 863 q 394 740 394 756 q 374 721 394 728 q 343 744 364 718 q 297 797 336 754 q 272 842 272 822 q 279 858 272 851 m 603 574 q 572 630 597 579 q 544 685 547 681 q 538 692 542 690 q 533 690 535 693 q 531 679 531 686 q 490 526 531 664 q 478 467 478 485 q 531 463 478 463 q 622 456 564 463 q 652 452 646 453 q 665 453 658 451 q 656 476 665 458 q 643 497 647 494 q 626 528 640 500 q 611 561 611 557 q 603 574 611 565 m 482 646 q 514 769 508 763 q 531 774 519 776 q 550 764 543 772 q 638 613 579 729 q 667 557 656 576 q 699 500 679 538 q 736 442 726 443 q 747 421 747 440 q 793 314 747 397 q 815 263 815 274 q 806 244 815 257 q 772 239 779 217 q 734 323 767 254 q 699 394 701 392 q 535 417 679 411 q 510 417 525 417 q 492 418 496 418 q 463 410 469 418 q 451 375 457 403 q 450 365 450 368 q 426 281 443 333 q 404 207 410 229 q 375 140 388 151 q 356 126 358 126 q 349 154 349 126 q 357 199 349 185 q 422 415 382 242 q 455 544 438 486 q 482 646 472 601 z "},"Á":{"ha":469,"x_min":42,"x_max":429,"o":"m 369 951 q 396 965 382 965 q 408 963 406 965 q 411 951 411 961 q 406 935 411 940 q 374 908 401 929 q 293 867 319 867 q 283 878 283 867 q 292 897 283 889 q 326 922 301 906 q 354 938 351 938 q 369 951 358 938 m 251 590 q 233 640 251 594 q 214 690 214 686 q 201 721 214 696 q 188 740 193 740 q 174 690 182 740 q 166 646 172 681 q 157 596 160 611 q 150 542 150 557 q 192 532 150 535 q 245 523 232 529 q 258 499 258 517 l 258 489 l 136 489 l 133 471 q 113 335 117 374 q 99 251 104 269 q 92 213 92 226 q 79 187 92 200 q 56 174 67 174 l 54 174 q 46 176 47 175 q 43 183 44 176 q 43 203 42 189 q 53 253 43 226 q 78 383 65 285 q 90 450 83 426 q 96 486 96 472 q 72 513 96 503 q 49 528 49 521 q 74 547 49 547 l 82 547 l 107 546 l 110 563 q 140 742 135 713 q 175 836 157 831 q 193 839 189 839 q 222 810 222 839 q 238 765 222 801 q 277 665 253 738 q 307 579 301 593 q 333 506 318 551 q 344 482 342 482 q 357 458 350 482 q 374 418 363 442 q 393 372 386 394 q 429 238 429 276 q 421 215 429 219 q 399 210 410 210 q 389 213 392 210 q 383 231 386 217 q 351 330 376 260 q 318 415 326 400 q 307 443 307 438 q 299 467 307 447 q 275 531 293 476 q 256 579 260 578 q 251 590 251 581 z "},"Â":{"ha":519,"x_min":43,"x_max":478,"o":"m 190 1007 q 215 1036 192 1008 q 244 1064 238 1064 q 339 1000 260 1064 q 367 979 365 979 q 392 965 374 979 q 414 936 414 951 q 408 924 414 929 q 388 918 403 918 q 363 925 369 918 q 347 935 358 932 q 296 968 343 936 q 240 1001 250 1001 q 192 963 231 1001 q 136 918 147 918 q 121 928 122 918 q 119 936 119 931 q 144 963 119 946 q 174 988 167 976 q 190 1007 182 1001 m 282 669 q 269 725 274 725 q 265 718 268 725 q 247 661 263 707 q 201 515 201 532 q 207 505 201 507 q 244 501 213 503 l 267 501 q 319 513 319 501 q 304 572 319 519 q 282 669 286 638 m 261 807 q 282 825 269 825 q 294 822 292 825 q 296 810 296 819 q 307 785 296 793 q 324 726 317 775 q 336 654 329 676 q 343 621 343 633 q 359 565 343 610 q 376 515 375 521 q 399 453 382 493 q 424 401 417 413 q 471 274 435 386 q 478 244 478 254 q 474 229 478 238 q 449 217 467 217 q 431 220 435 217 q 424 240 428 224 q 390 342 399 336 q 372 379 388 344 q 347 438 356 414 l 340 456 l 263 457 l 214 457 q 179 449 182 457 q 160 378 160 400 q 142 309 160 365 q 111 221 125 253 q 103 193 103 201 q 85 168 103 183 q 54 156 67 151 q 43 168 43 158 q 53 202 43 178 q 71 235 64 226 q 94 280 82 246 q 119 362 106 314 q 138 425 132 410 q 143 464 149 456 q 150 499 132 481 q 181 567 164 513 q 190 596 185 578 q 199 625 194 614 q 204 642 203 636 q 210 665 211 661 q 210 668 208 667 q 213 669 211 669 q 214 674 217 669 q 215 679 211 679 q 219 692 219 679 q 261 807 219 707 z "},"Ã":{"ha":594,"x_min":43,"x_max":557,"o":"m 147 1025 q 181 1033 157 1025 q 213 1040 204 1040 q 308 1014 250 1040 q 343 1004 331 1004 q 379 1019 361 1004 q 407 1032 394 1032 q 417 1025 417 1032 q 402 992 417 1014 q 374 965 388 971 q 346 957 358 957 q 276 975 329 957 q 200 993 224 993 q 174 986 185 993 q 143 993 147 972 q 136 1014 140 1008 q 133 1024 132 1022 q 147 1025 135 1025 m 260 800 q 283 843 264 843 q 310 813 296 843 q 385 668 344 736 q 428 589 424 599 q 451 533 433 569 q 536 297 517 390 q 550 236 547 246 q 550 194 557 208 q 528 171 538 171 q 513 197 517 171 q 422 496 493 342 q 381 584 408 529 q 342 656 353 639 q 308 714 325 678 q 283 753 288 753 q 256 671 276 753 q 225 572 246 626 q 204 506 204 515 q 314 485 204 485 l 388 483 q 399 444 399 456 q 394 435 399 436 l 389 435 q 197 443 369 435 q 180 442 183 444 q 175 433 176 440 q 142 338 174 419 q 99 235 110 256 q 83 199 86 213 q 70 174 81 186 q 53 163 60 163 l 50 163 q 43 181 43 167 q 58 238 43 218 q 110 339 94 300 q 156 471 156 451 q 167 504 156 489 q 189 560 174 514 q 222 668 204 606 q 249 753 240 731 q 260 800 257 779 z "},"Ç":{"ha":415,"x_min":40,"x_max":375,"o":"m 131 546 q 188 560 158 560 q 243 550 214 560 q 317 506 317 525 q 303 482 317 482 q 281 490 294 482 q 231 511 265 499 q 186 524 197 524 q 146 509 175 524 q 107 485 117 494 q 79 383 79 454 q 94 314 79 346 q 218 240 131 240 q 303 254 257 240 q 364 269 353 269 q 375 260 375 269 q 374 247 375 251 q 336 219 369 235 q 281 197 303 203 q 260 190 264 194 q 249 164 256 185 q 217 106 238 133 q 196 68 196 76 q 215 50 196 58 q 254 42 235 42 q 288 31 276 42 q 299 13 299 19 q 254 -6 299 -6 q 175 22 210 -6 q 150 35 157 38 q 142 39 142 32 l 144 43 q 149 60 149 44 q 196 135 149 79 q 214 171 214 157 q 210 184 214 182 q 188 189 207 186 q 115 218 144 194 q 60 290 85 242 l 40 328 l 42 382 q 54 464 43 435 q 131 546 75 518 z "},"É":{"ha":582,"x_min":43,"x_max":542,"o":"m 482 929 q 517 947 482 931 q 531 943 524 946 q 542 925 542 940 q 536 907 542 913 q 461 867 526 899 q 385 833 396 836 q 372 832 375 831 q 369 842 369 833 q 376 865 369 857 q 406 883 382 872 q 453 911 440 900 q 475 925 469 925 q 482 929 482 925 m 304 724 q 331 732 326 732 q 342 728 335 732 q 339 696 361 717 q 225 674 314 674 l 200 674 l 142 675 l 143 611 q 150 543 146 547 q 186 535 156 538 q 250 526 238 529 q 276 510 263 522 q 289 485 293 493 q 261 476 285 476 q 196 483 244 476 q 158 489 160 489 q 147 483 150 489 q 142 454 144 478 q 140 447 140 450 q 94 286 128 367 q 88 256 83 260 q 140 246 93 250 q 211 243 161 243 q 333 253 304 243 q 361 260 357 260 q 375 246 369 260 q 379 229 379 236 q 361 214 379 219 q 225 196 303 196 q 81 208 161 196 q 43 235 43 214 q 61 292 43 251 q 100 435 90 358 q 104 483 104 469 q 94 499 104 499 q 88 522 85 499 q 99 538 88 529 q 107 618 107 544 l 107 690 l 121 697 q 136 711 133 704 q 163 715 138 715 q 192 715 169 715 q 228 714 215 714 q 304 724 276 714 z "},"Ê":{"ha":378,"x_min":42,"x_max":344,"o":"m 154 899 q 181 910 168 910 q 243 886 200 910 q 286 851 286 863 q 295 831 286 847 q 304 808 304 815 q 300 800 304 803 l 299 800 q 258 819 290 800 q 172 858 193 858 q 132 836 154 858 q 100 813 124 828 q 60 799 76 799 q 43 814 44 799 q 57 835 42 826 q 154 899 76 844 m 274 714 q 308 718 294 718 q 332 710 328 718 q 338 693 338 700 q 318 678 338 683 q 160 654 282 668 l 129 651 l 128 600 l 128 564 q 128 542 128 549 q 137 532 129 536 q 151 527 144 528 q 179 525 157 526 q 256 501 256 519 q 236 482 256 492 q 203 474 219 474 q 176 475 188 474 q 147 476 164 476 q 133 472 136 476 q 131 453 131 468 l 131 436 q 113 272 131 354 q 111 246 107 250 q 167 238 114 243 q 269 232 221 233 q 329 229 326 232 q 319 197 344 222 l 306 185 l 233 188 q 61 221 61 196 q 63 227 61 222 q 65 238 64 232 q 68 250 67 244 q 90 419 88 317 l 92 482 q 68 496 72 488 q 67 503 67 499 q 67 510 67 507 q 69 516 68 514 q 73 520 69 518 q 78 523 76 522 q 84 526 79 524 q 90 528 89 528 l 89 603 l 86 676 l 107 688 q 192 704 129 699 q 274 714 224 707 z "},"Í":{"ha":344,"x_min":43,"x_max":304,"o":"m 264 835 q 292 849 282 849 q 304 824 304 849 q 282 797 304 814 q 182 739 199 739 l 181 739 q 174 754 174 742 q 183 779 174 769 q 224 808 192 788 q 264 835 256 828 m 65 647 q 99 660 72 649 q 138 672 125 672 q 154 644 154 672 q 149 594 154 628 q 140 510 140 542 q 160 313 140 413 q 169 246 169 261 q 157 210 169 219 q 144 203 147 203 q 125 254 129 203 q 115 321 119 293 q 100 475 100 431 q 111 594 100 517 q 113 609 114 607 q 103 610 111 611 q 67 603 79 603 q 43 625 43 603 q 47 640 43 636 q 65 647 50 643 z "},"Ò":{"ha":514,"x_min":43,"x_max":476,"o":"m 47 779 q 65 785 53 786 q 86 774 78 783 q 122 726 100 758 q 143 688 143 694 q 133 672 143 681 q 117 664 122 663 q 103 681 111 667 q 69 728 86 707 q 43 769 43 763 q 47 779 43 775 m 375 583 l 357 604 l 325 604 q 235 561 274 604 q 205 517 211 535 q 199 454 199 499 q 219 325 199 363 q 235 296 225 315 q 263 264 242 282 q 299 242 283 246 q 318 239 313 239 q 364 253 336 239 q 395 281 383 264 q 424 338 407 297 q 443 410 443 385 q 435 469 443 439 q 417 507 426 500 q 404 536 414 510 q 375 583 394 563 m 265 651 q 289 654 274 654 q 317 650 317 654 q 336 646 317 646 q 429 596 401 646 q 435 586 432 592 q 440 577 439 581 q 443 574 442 574 q 457 529 446 571 q 474 457 468 488 q 476 421 476 435 q 457 313 476 368 q 406 228 438 258 q 326 190 368 190 q 318 192 321 190 q 299 196 310 196 q 265 208 288 196 q 226 236 242 221 q 172 343 192 271 q 161 418 161 392 l 161 442 q 178 535 163 488 q 235 633 203 617 q 252 644 244 639 q 265 651 260 649 z "},"Ó":{"ha":453,"x_min":42,"x_max":413,"o":"m 388 803 q 401 807 390 810 q 413 785 413 806 q 404 767 413 776 q 354 721 396 757 q 306 692 321 692 q 292 717 292 692 q 313 746 292 732 q 388 803 375 786 m 325 514 q 210 589 289 589 q 143 574 175 589 q 95 541 107 557 q 83 486 83 525 q 84 472 83 482 q 85 454 85 461 q 119 318 89 376 q 166 260 142 278 q 232 239 190 243 q 251 238 240 238 q 285 249 267 238 q 322 281 303 258 q 349 324 342 304 q 353 351 353 332 q 352 363 353 356 q 351 372 351 369 q 325 514 340 486 m 71 586 q 128 621 104 614 q 213 628 153 628 q 282 613 260 626 q 372 467 361 571 q 381 415 374 456 q 389 354 389 375 q 379 299 389 326 q 338 240 368 267 q 240 192 285 192 q 189 200 218 192 q 58 351 99 228 q 47 376 54 367 q 42 454 42 382 q 44 529 42 510 q 51 565 47 557 q 71 586 54 572 z "},"Ô":{"ha":378,"x_min":40,"x_max":340,"o":"m 151 836 q 193 858 181 858 q 240 822 204 858 q 301 739 301 760 q 297 724 301 728 q 282 719 293 721 q 266 721 271 718 q 253 738 261 724 q 214 785 244 751 l 188 813 l 168 801 q 117 765 147 792 q 67 739 82 739 q 56 751 56 739 q 94 796 56 769 q 124 816 103 801 q 151 836 144 831 m 268 544 q 211 582 244 582 q 138 539 175 582 q 93 465 101 497 q 81 390 81 415 q 85 357 81 374 q 110 292 93 325 q 139 251 126 260 q 194 238 157 238 q 228 243 217 238 q 265 273 246 250 q 293 321 283 296 q 303 407 303 346 q 283 522 303 507 q 268 544 279 526 m 182 615 q 218 619 203 619 q 290 581 254 619 q 325 517 315 553 q 339 422 338 469 q 340 381 340 404 q 333 335 340 356 q 294 251 319 289 q 243 199 268 213 q 175 188 221 188 q 142 192 153 188 q 70 265 100 210 q 40 378 40 319 q 60 498 40 443 q 113 575 81 553 q 182 615 163 611 z "},"Õ":{"ha":411,"x_min":40,"x_max":374,"o":"m 142 806 q 183 821 164 821 q 253 790 213 821 q 286 771 279 771 q 317 783 292 771 q 332 791 326 789 q 341 794 338 793 q 346 792 344 794 q 347 785 347 790 q 318 749 347 764 q 281 738 293 738 q 229 764 257 738 q 182 786 204 786 q 142 769 160 786 q 113 769 113 743 q 142 806 113 783 m 285 593 q 242 599 268 599 q 196 593 215 599 q 167 576 185 589 q 143 558 150 563 q 94 510 111 542 q 74 425 81 485 q 72 393 72 414 q 113 263 72 306 q 185 236 133 242 l 197 236 q 326 314 285 236 q 333 324 329 319 q 338 330 336 328 q 340 336 339 332 q 343 347 342 340 q 346 364 344 353 q 349 410 349 378 q 335 515 349 472 q 285 593 315 579 m 214 629 q 249 631 225 631 q 307 624 290 631 q 365 504 342 606 q 374 447 374 474 q 373 430 374 443 q 372 407 372 417 q 351 292 368 322 q 315 252 344 279 q 267 217 285 225 q 192 199 231 199 q 126 214 156 199 q 93 237 104 225 q 67 276 82 249 q 46 342 51 304 q 40 394 40 374 q 50 458 40 419 q 78 540 64 517 q 124 585 92 564 q 153 606 153 604 q 175 619 153 610 q 214 629 197 628 z "},"Ú":{"ha":406,"x_min":42,"x_max":369,"o":"m 269 711 q 287 722 278 721 q 299 713 296 722 q 300 707 299 711 q 244 632 300 693 q 179 571 192 571 q 172 588 172 571 q 232 668 172 604 q 247 685 238 675 q 262 701 256 694 q 269 711 268 708 m 53 643 l 56 644 l 58 644 q 71 611 67 644 q 101 388 85 456 q 133 294 113 340 q 171 232 154 249 q 206 218 186 217 q 264 240 242 221 q 325 463 313 283 q 338 610 335 585 q 351 635 342 635 q 363 620 357 635 q 367 599 369 606 q 360 554 361 583 q 355 492 357 524 q 351 448 353 460 q 349 424 350 436 q 347 403 349 411 q 344 389 346 394 q 339 367 343 383 q 332 336 335 350 q 250 190 306 215 q 203 181 233 183 l 188 181 q 157 193 172 181 q 117 250 140 206 q 65 385 85 314 q 42 578 42 467 q 53 643 42 640 z "},"ú":{"ha":406,"x_min":42,"x_max":369,"o":"m 269 711 q 287 722 278 721 q 299 713 296 722 q 300 707 299 711 q 244 632 300 693 q 179 571 192 571 q 172 588 172 571 q 232 668 172 604 q 247 685 238 675 q 262 701 256 694 q 269 711 268 708 m 53 643 l 56 644 l 58 644 q 71 611 67 644 q 101 388 85 456 q 133 294 113 340 q 171 232 154 249 q 206 218 186 217 q 264 240 242 221 q 325 463 313 283 q 338 610 335 585 q 351 635 342 635 q 363 620 357 635 q 367 599 369 606 q 360 554 361 583 q 355 492 357 524 q 351 448 353 460 q 349 424 350 436 q 347 403 349 411 q 344 389 346 394 q 339 367 343 383 q 332 336 335 350 q 250 190 306 215 q 203 181 233 183 l 188 181 q 157 193 172 181 q 117 250 140 206 q 65 385 85 314 q 42 578 42 467 q 53 643 42 640 z "},"à":{"ha":458,"x_min":43,"x_max":418,"o":"m 43 615 q 51 631 43 622 q 64 640 58 640 q 135 590 82 640 q 174 542 174 551 q 158 522 174 533 q 147 517 150 517 q 86 567 138 517 q 43 615 43 607 m 313 339 q 249 382 292 382 q 196 356 218 382 q 186 326 186 346 q 201 276 186 303 q 236 239 215 250 q 261 232 250 232 q 311 289 296 232 q 318 322 318 311 q 313 339 318 329 m 219 419 q 256 429 238 429 q 339 361 301 429 q 353 296 353 338 q 364 236 353 251 q 376 223 371 225 q 396 222 381 221 q 418 214 418 224 q 411 191 418 204 q 397 175 404 178 q 383 172 386 172 q 351 189 368 172 q 333 210 333 207 q 329 214 333 213 q 319 213 325 215 q 310 207 313 211 q 261 188 293 188 q 217 197 240 188 q 163 238 185 213 q 142 289 142 264 q 138 303 142 303 q 133 308 135 303 q 134 319 132 313 q 139 328 136 325 q 157 360 146 335 q 219 419 175 397 z "},"á":{"ha":467,"x_min":40,"x_max":429,"o":"m 260 533 q 306 565 293 565 q 317 561 311 565 q 319 554 319 560 q 292 515 319 540 q 251 481 265 490 q 236 483 244 476 q 228 497 228 489 q 260 533 228 504 m 208 238 q 265 329 265 238 q 213 414 265 381 q 178 428 190 428 q 157 425 174 428 q 124 408 143 422 q 99 382 104 393 q 93 353 93 371 q 132 272 93 300 q 153 254 150 260 q 176 243 157 249 q 208 238 196 238 m 153 464 q 171 467 164 467 q 260 424 219 467 q 335 281 292 389 q 368 247 350 247 q 408 278 386 247 l 424 299 l 428 286 q 428 282 428 285 q 429 278 429 279 q 410 225 429 249 q 365 201 392 201 q 310 238 333 201 q 294 256 300 256 q 283 240 289 256 q 207 192 268 192 l 200 192 q 92 236 111 199 q 71 272 81 253 q 40 375 40 326 q 57 401 40 401 q 81 419 68 401 q 153 464 99 446 z "},"â":{"ha":424,"x_min":40,"x_max":383,"o":"m 126 621 q 169 640 168 640 q 219 603 176 640 q 261 560 261 567 q 235 543 261 543 l 225 543 q 186 565 206 544 q 158 585 169 585 q 119 571 144 585 q 82 558 92 558 q 64 564 74 558 q 56 583 54 572 q 72 599 57 596 q 126 621 90 601 m 190 246 q 224 347 224 246 l 224 375 q 213 408 224 399 q 169 419 200 419 q 113 403 131 419 q 96 350 96 386 q 131 276 96 307 q 190 246 164 246 m 383 244 q 373 207 383 224 q 344 190 363 190 q 286 236 321 190 q 265 261 267 261 q 256 244 264 261 q 215 207 247 228 q 165 186 183 186 q 81 225 113 186 q 40 321 40 274 q 51 367 40 344 q 71 408 58 379 q 109 450 81 433 q 175 467 138 467 l 178 467 q 233 444 213 467 q 256 382 253 422 q 271 349 257 350 q 285 344 281 347 q 292 326 289 340 q 326 258 301 288 q 360 249 349 233 q 376 256 368 258 q 383 244 383 254 z "},"ã":{"ha":483,"x_min":43,"x_max":443,"o":"m 44 583 q 43 589 43 585 q 74 627 43 604 q 129 650 106 650 q 179 618 149 650 q 267 565 228 565 q 304 576 285 565 q 329 589 322 589 q 335 583 335 589 q 321 556 335 574 q 292 529 307 538 q 263 524 281 524 q 188 553 219 524 q 118 603 138 603 q 85 589 108 603 q 56 575 63 575 q 44 583 49 575 m 239 426 q 206 432 232 432 q 168 428 185 432 q 131 401 154 425 q 111 371 111 381 q 113 356 111 363 q 156 275 121 297 q 196 260 178 260 q 224 267 207 260 q 250 290 243 275 q 258 343 257 306 l 258 363 q 239 426 258 414 m 303 374 q 317 351 308 374 q 325 321 325 329 q 341 285 325 314 q 363 253 357 257 q 378 247 368 247 q 410 258 388 247 q 436 269 432 269 q 443 256 443 269 q 427 226 443 240 q 386 203 411 211 l 360 193 l 343 206 q 311 246 325 221 q 292 275 296 275 q 283 261 289 275 q 262 229 276 246 q 236 207 247 213 q 207 200 219 200 q 108 256 158 200 q 76 298 85 282 q 65 338 68 314 q 64 349 64 342 q 76 385 64 364 q 104 426 93 415 q 175 467 135 457 q 201 469 189 469 q 260 460 240 469 q 292 401 288 447 q 303 374 294 374 z "},"ç":{"ha":344,"x_min":40,"x_max":304,"o":"m 139 192 q 115 200 129 192 q 93 208 100 208 q 67 229 82 208 q 46 272 51 250 q 40 314 40 290 q 60 393 40 353 q 78 425 71 418 q 110 447 85 432 q 169 465 142 465 q 228 439 200 465 q 247 403 247 419 q 239 386 247 392 q 215 397 231 379 q 164 429 189 429 q 134 417 157 429 q 104 397 111 404 q 82 322 82 372 q 108 253 82 279 q 172 235 128 235 q 246 251 213 235 q 292 263 271 263 q 303 260 301 263 q 304 253 304 257 q 274 217 304 236 q 228 199 243 199 q 173 149 222 199 q 124 94 124 100 q 136 82 124 92 q 174 72 146 72 l 194 72 l 217 72 q 243 67 239 72 q 240 47 249 60 q 178 31 231 31 l 161 31 q 85 90 99 35 q 84 94 85 92 q 83 99 83 97 q 119 143 83 107 q 156 186 156 179 q 139 192 156 192 z "},"é":{"ha":407,"x_min":39,"x_max":368,"o":"m 317 596 q 357 615 346 615 q 368 600 368 615 q 349 568 368 586 q 306 539 331 550 q 275 529 286 529 q 260 550 261 529 q 265 567 258 564 q 317 596 278 571 m 235 404 q 228 417 235 410 q 208 424 221 424 q 164 409 189 424 q 135 383 139 394 l 133 382 q 133 379 133 381 q 144 374 133 374 q 179 378 154 374 q 235 404 235 386 m 164 453 q 217 461 189 461 q 242 457 233 461 q 267 414 267 447 q 251 368 267 392 q 158 326 225 332 q 127 324 135 325 q 117 319 119 322 q 114 307 114 317 q 144 258 114 285 q 210 232 175 232 q 253 243 235 232 q 267 251 263 249 q 276 255 272 254 q 282 253 281 256 q 283 244 283 250 q 272 217 283 233 q 251 194 261 200 q 218 189 242 189 q 158 197 186 189 q 97 241 124 207 q 71 310 71 275 q 66 337 71 325 q 54 349 61 349 q 43 360 47 349 q 43 379 39 371 q 71 386 47 386 q 96 394 94 386 q 124 426 100 406 q 164 453 147 447 z "},"ê":{"ha":394,"x_min":43,"x_max":356,"o":"m 247 676 q 254 681 251 681 q 311 633 264 681 q 343 596 343 600 q 311 600 342 575 q 283 626 300 607 q 260 647 265 647 q 242 633 256 647 q 163 582 203 593 q 140 585 142 576 q 143 594 139 589 q 151 599 147 599 q 176 610 154 599 q 218 640 200 622 q 247 676 240 663 m 313 468 q 319 490 319 482 q 304 519 319 508 q 265 531 289 531 l 260 531 q 242 528 250 529 q 226 524 233 526 q 216 519 219 521 q 204 511 213 517 q 193 504 196 506 q 139 443 156 479 q 133 411 125 413 q 154 410 138 410 q 240 419 201 410 q 313 468 294 433 m 119 375 q 137 317 124 356 q 156 279 150 279 q 172 267 157 279 q 190 253 175 264 q 211 236 206 242 q 235 220 217 231 q 260 210 254 210 l 261 210 q 274 210 267 211 l 282 210 q 340 221 324 210 q 353 215 350 229 q 343 197 356 204 q 275 185 313 185 l 267 185 q 196 204 224 188 q 128 269 150 231 q 99 361 99 322 q 94 381 99 379 q 86 383 93 382 q 73 386 85 383 q 52 392 61 389 q 43 401 43 396 q 46 407 43 404 q 63 413 51 413 q 78 411 67 413 q 93 410 89 410 l 103 410 l 110 426 q 122 456 118 443 q 158 507 133 482 q 253 551 192 540 q 269 553 258 553 q 306 544 289 553 q 336 510 328 535 q 340 489 340 500 q 268 401 340 435 q 147 374 210 374 q 119 375 128 374 z "},"í":{"ha":225,"x_min":38,"x_max":185,"o":"m 144 693 q 176 717 168 717 q 185 701 185 717 q 160 669 185 694 q 128 644 135 644 q 121 649 125 644 q 118 656 118 654 q 144 693 118 667 m 54 586 q 63 590 57 588 q 73 595 68 593 q 81 597 78 597 q 86 586 86 597 q 82 540 86 575 q 74 310 74 464 q 70 201 72 221 q 58 181 68 181 l 54 181 q 40 189 43 182 q 38 228 38 196 q 38 258 38 235 q 39 297 39 281 q 50 539 40 429 l 54 586 z "},"ò":{"ha":403,"x_min":40,"x_max":365,"o":"m 101 679 q 107 683 103 683 q 117 678 111 683 q 126 666 122 672 q 136 653 131 660 l 142 644 q 147 626 147 638 q 140 615 147 615 q 126 626 133 615 q 100 675 100 668 l 100 676 q 101 679 101 678 m 279 560 q 211 572 251 572 q 190 569 201 572 q 135 535 161 561 q 93 481 108 510 q 69 364 69 431 q 79 304 69 328 q 111 254 97 267 q 135 238 114 251 q 174 225 150 228 l 183 225 q 203 226 194 225 q 222 232 213 228 q 236 239 232 236 q 252 249 240 242 q 267 258 264 257 q 300 294 292 274 q 332 404 321 336 q 336 439 336 422 q 328 486 336 464 q 305 531 319 508 q 279 560 290 554 m 126 558 q 132 563 128 560 q 224 597 185 594 q 260 588 240 597 q 283 579 279 579 q 324 558 303 576 q 364 457 356 531 q 365 449 364 454 q 365 439 365 443 q 351 349 365 399 q 319 276 338 299 q 303 248 318 274 q 275 211 288 222 q 208 186 250 186 q 143 204 175 186 q 88 249 106 226 q 59 293 75 264 q 42 333 43 322 q 41 340 42 335 q 40 347 40 344 q 49 424 40 382 q 70 479 54 444 q 96 525 86 514 q 126 558 113 549 z "},"ó":{"ha":419,"x_min":42,"x_max":381,"o":"m 304 674 q 333 692 313 678 q 369 711 353 706 l 369 703 q 364 686 371 693 q 285 635 346 668 q 273 634 278 631 q 268 644 268 638 q 304 674 268 653 m 307 542 q 204 576 257 576 q 186 575 192 576 q 140 556 165 569 q 128 546 135 551 q 117 536 121 540 l 113 531 q 106 521 113 531 q 83 476 93 507 q 72 385 72 443 q 76 314 72 333 q 147 218 97 238 q 188 210 167 210 q 226 215 196 210 q 272 239 250 219 q 315 305 292 258 q 346 385 339 351 q 347 413 347 390 q 342 483 347 467 q 307 542 331 524 m 196 600 q 231 604 214 604 q 336 563 294 604 q 358 535 346 553 q 369 511 369 517 q 374 504 369 508 q 381 463 381 497 l 381 435 q 357 310 379 357 q 324 256 336 268 q 308 238 313 244 q 243 196 286 206 q 178 188 213 188 q 172 189 175 188 l 168 189 q 157 192 163 192 q 120 205 144 192 q 85 231 96 218 q 42 382 42 278 q 63 492 42 447 q 67 501 65 496 q 69 511 68 507 q 74 521 71 515 q 81 532 76 526 q 121 572 97 557 q 196 600 144 586 z "},"ô":{"ha":407,"x_min":40,"x_max":369,"o":"m 297 647 q 313 644 301 647 q 331 642 325 642 q 347 636 342 642 q 344 624 351 631 q 325 621 342 621 q 278 629 308 621 q 225 649 238 639 l 217 653 q 213 654 215 653 q 208 656 210 656 q 204 656 206 657 q 165 631 200 647 q 103 610 129 615 q 74 611 81 604 q 71 622 67 617 q 86 629 75 628 q 97 632 89 629 q 106 635 104 635 q 179 664 156 646 q 188 676 188 669 q 213 682 188 699 q 253 662 219 676 q 297 647 286 647 m 219 563 q 169 572 190 572 q 151 568 157 572 q 139 564 144 564 q 103 543 124 564 q 61 394 61 497 l 61 383 l 63 344 l 71 319 q 108 258 82 289 q 165 215 135 226 q 190 208 174 211 q 207 206 206 204 q 225 210 215 208 q 271 229 247 214 q 315 261 304 250 q 336 297 326 272 q 349 382 349 329 l 349 411 q 332 440 336 421 q 317 479 328 460 q 303 503 304 503 q 296 511 300 503 q 253 550 286 533 q 235 557 239 557 l 233 558 q 226 560 231 558 q 219 563 222 561 m 100 569 q 176 600 129 600 q 242 588 217 600 l 256 582 q 315 535 268 582 q 354 472 331 519 q 369 403 369 443 q 304 213 369 278 q 217 182 274 182 l 204 182 l 175 183 l 157 193 q 144 201 153 196 q 132 207 135 206 q 92 240 115 217 q 63 278 69 263 q 40 397 40 322 l 40 413 q 100 569 44 514 z "},"õ":{"ha":360,"x_min":40,"x_max":322,"o":"m 118 615 q 142 621 131 621 q 176 604 158 621 q 197 594 188 594 q 229 615 213 594 q 236 621 235 621 q 239 614 239 621 q 225 590 239 606 q 197 575 211 575 q 189 576 192 575 q 176 585 183 578 q 142 599 160 599 q 125 593 132 599 q 110 593 114 583 q 104 596 110 596 q 99 600 99 596 q 118 615 99 607 m 218 514 q 183 522 201 522 q 136 510 164 522 q 113 496 114 497 q 58 342 58 431 q 61 306 58 331 q 83 257 64 286 q 119 218 101 228 q 168 204 139 206 l 182 204 q 215 211 200 204 q 282 261 258 233 q 297 293 297 279 q 300 299 297 299 q 306 336 303 300 q 306 346 306 340 q 307 354 307 351 q 297 404 307 364 q 268 468 286 450 q 254 483 265 471 q 234 504 243 496 q 218 514 225 513 m 203 539 q 257 508 236 532 q 307 422 288 472 q 322 324 322 376 l 322 310 q 288 240 319 272 q 221 193 257 207 q 165 186 200 186 q 136 189 150 186 q 42 269 49 210 q 40 297 40 276 q 53 419 40 375 q 69 467 61 456 q 172 542 106 542 q 203 539 181 542 z "},"’":{"ha":1182,"x_min":40,"x_max":1143,"o":"m 163 856 q 182 864 168 865 q 200 851 200 863 q 172 811 200 842 q 81 654 107 743 q 60 624 72 624 q 47 632 53 624 q 40 649 40 639 q 47 688 40 661 q 93 786 53 717 q 124 825 103 804 q 151 846 144 846 q 163 856 158 846 m 1139 156 q 1140 158 1139 158 q 1143 156 1143 158 q 1140 154 1143 154 q 1139 156 1139 154 z "},"“":{"ha":454,"x_min":40,"x_max":414,"o":"m 207 932 q 226 941 224 940 q 242 938 229 942 q 254 919 254 933 q 242 901 254 906 q 199 865 235 899 q 94 692 122 793 q 50 617 74 617 l 47 617 q 40 636 40 618 q 69 753 40 678 q 108 821 83 788 q 143 872 142 869 q 171 904 149 883 q 207 932 193 925 m 360 881 q 397 899 382 899 q 410 893 406 899 q 414 883 414 889 q 372 826 414 868 q 261 653 288 746 q 229 593 246 599 q 226 592 228 593 q 224 592 225 592 q 207 617 207 592 q 226 693 207 649 q 265 765 244 738 q 360 881 322 853 z "},"”":{"ha":468,"x_min":42,"x_max":429,"o":"m 192 993 q 226 990 204 1001 q 251 975 242 983 q 269 954 260 967 q 288 932 278 942 q 350 853 331 886 q 368 826 361 833 q 405 738 381 813 q 429 636 429 663 q 407 589 429 606 q 394 583 399 583 q 376 646 381 583 q 360 738 374 690 q 335 793 346 786 q 303 835 332 794 q 229 918 276 871 q 183 976 183 963 q 192 993 183 988 m 54 931 q 60 933 57 932 q 67 936 64 935 l 69 938 q 103 906 78 938 q 140 850 128 875 q 238 576 231 660 q 239 556 239 567 q 229 532 239 543 q 214 521 221 521 q 188 593 200 521 q 133 751 176 653 q 61 881 90 850 q 42 914 42 904 q 54 931 42 925 z "},"⁰":{"ha":240,"x_min":40,"x_max":201,"o":"m 121 913 q 89 908 106 917 q 76 896 81 904 q 66 872 71 888 q 58 850 61 856 q 54 807 54 838 q 63 729 54 769 q 72 689 69 692 q 74 685 75 688 q 75 678 74 683 q 94 646 79 663 q 124 632 108 631 q 142 640 135 633 q 153 653 150 646 q 164 674 157 660 q 172 697 172 693 q 173 702 172 699 q 175 710 174 706 q 176 717 176 714 q 185 796 185 772 q 174 851 185 814 q 153 897 163 888 q 121 913 143 907 m 40 801 q 42 830 40 811 q 44 856 44 849 q 63 897 44 868 q 88 921 75 915 q 97 927 90 922 q 108 933 103 932 q 121 933 113 935 q 169 902 149 932 q 197 836 190 872 q 199 815 197 826 q 201 792 201 804 l 201 778 q 201 760 201 769 q 200 746 200 751 l 199 740 q 194 715 199 733 q 189 690 189 696 q 188 688 189 689 q 188 685 188 686 q 185 675 188 683 q 163 628 174 643 q 126 617 151 617 l 108 617 l 93 624 q 74 636 79 631 q 53 688 67 643 q 50 702 51 690 q 46 718 49 714 q 40 801 40 740 z "},"⁴":{"ha":521,"x_min":42,"x_max":481,"o":"m 315 989 l 321 992 q 328 979 328 992 q 318 939 328 963 q 297 879 313 922 q 279 829 282 836 q 274 810 276 821 q 269 797 271 800 l 296 793 q 339 792 307 792 q 408 796 400 792 q 414 831 418 801 q 407 940 407 872 l 407 950 q 414 974 408 969 q 424 975 421 978 q 433 865 429 969 q 438 796 435 807 l 456 796 q 481 785 481 796 q 461 768 481 769 q 443 761 450 768 q 438 733 435 753 q 444 690 439 721 q 450 650 449 658 q 453 632 453 633 q 450 618 454 631 q 442 604 446 604 q 422 683 433 604 q 419 704 422 686 q 415 731 417 722 q 411 761 413 760 q 325 763 410 763 q 238 768 243 763 q 235 774 235 771 q 256 825 235 776 q 293 933 276 872 q 315 989 307 983 m 43 485 q 42 485 43 485 q 42 486 42 485 q 43 488 42 488 q 44 486 44 488 q 43 485 44 485 z "},"⁵":{"ha":294,"x_min":42,"x_max":256,"o":"m 171 981 q 182 982 175 985 q 189 974 189 979 q 178 958 189 961 q 168 954 176 958 q 108 949 153 949 l 75 949 l 76 907 l 79 864 q 103 871 90 867 q 144 882 133 882 q 168 878 153 882 q 218 850 200 869 q 250 796 244 817 q 256 751 256 775 q 221 658 256 693 q 154 624 186 624 q 147 622 149 624 q 107 631 140 615 q 71 655 100 633 q 42 688 42 676 q 44 692 42 689 q 49 693 46 693 q 67 685 56 693 q 81 672 78 676 q 118 649 86 661 q 142 644 126 644 q 167 650 161 644 q 171 653 168 650 q 177 658 174 656 q 183 664 181 661 q 225 763 225 696 q 215 810 225 790 q 142 857 192 857 q 79 839 115 857 q 63 835 67 832 q 58 854 60 838 q 58 868 58 858 q 56 892 57 878 q 56 917 56 907 l 54 964 q 74 974 67 976 l 78 972 q 86 972 83 972 q 171 981 163 972 z "},"⁶":{"ha":303,"x_min":40,"x_max":264,"o":"m 242 757 q 216 802 232 788 q 167 818 200 817 l 143 818 l 128 810 q 88 772 99 792 q 82 736 82 763 q 83 719 82 724 q 122 681 92 699 q 161 671 139 671 l 188 671 l 206 679 q 247 731 247 700 q 242 757 247 738 m 151 996 q 181 1000 163 1000 q 207 989 207 1000 q 206 983 207 985 q 185 981 201 975 q 174 982 182 982 q 104 944 139 982 q 78 906 89 926 q 60 813 60 867 l 60 789 q 64 764 60 769 q 115 825 79 806 q 176 844 154 844 q 243 815 221 844 q 264 733 264 788 q 257 694 264 708 q 219 655 244 674 q 165 636 193 636 q 142 640 154 636 q 81 683 107 653 q 47 749 54 714 q 40 818 40 783 q 49 881 40 860 q 151 996 83 972 z "},"⁷":{"ha":476,"x_min":40,"x_max":436,"o":"m 436 974 q 429 939 436 965 q 422 906 422 913 q 410 863 419 893 q 356 664 375 754 q 331 604 340 604 q 319 617 319 604 q 322 633 319 622 q 324 647 324 643 q 379 838 324 676 q 390 879 390 871 q 404 942 393 913 l 407 954 l 403 954 q 315 948 383 954 q 239 939 247 942 q 240 931 236 939 q 247 914 243 922 l 251 906 q 245 897 251 903 q 236 890 239 890 q 211 915 233 890 q 188 944 189 939 q 190 956 185 951 q 211 961 194 960 q 242 967 219 963 q 303 974 265 971 q 340 977 319 975 q 377 981 360 979 q 397 983 394 983 q 425 986 411 986 q 436 974 435 986 m 40 456 l 42 454 l 40 456 z "},"⁸":{"ha":236,"x_min":40,"x_max":199,"o":"m 125 813 q 119 815 122 814 q 115 817 117 817 q 98 794 114 817 q 75 760 82 771 q 67 721 67 738 q 71 699 67 708 q 90 676 75 690 q 110 660 104 661 q 121 658 113 658 q 151 674 144 658 q 167 736 167 719 q 153 782 167 758 q 125 813 140 806 m 132 965 q 99 964 110 971 q 64 910 64 943 q 67 892 64 897 q 88 863 75 872 q 107 849 103 850 q 117 857 111 849 q 147 936 147 897 q 132 965 147 961 m 40 908 q 101 997 40 985 l 113 1000 q 144 985 115 1001 q 167 939 167 968 q 140 860 167 906 q 137 854 139 857 q 134 849 135 851 q 132 845 133 847 q 131 842 131 843 l 129 840 l 146 826 q 194 758 182 797 q 197 717 199 744 q 177 657 194 681 q 131 633 160 633 q 97 642 117 633 q 43 713 43 665 q 46 735 43 718 q 93 824 50 758 q 46 869 63 835 q 40 908 40 881 z "},"⁹":{"ha":288,"x_min":40,"x_max":249,"o":"m 165 954 q 142 958 150 958 q 97 932 124 958 q 81 904 79 914 q 78 886 82 896 q 75 865 75 881 q 79 842 75 846 q 86 828 82 839 q 149 788 106 788 q 183 796 167 788 q 222 867 222 815 q 217 900 222 885 q 165 954 203 942 m 204 629 q 208 704 204 649 q 213 774 213 760 l 213 785 l 203 779 q 138 753 160 753 q 63 796 96 753 q 40 851 40 824 q 42 871 40 864 q 117 976 50 944 q 147 985 133 985 q 207 963 182 985 q 228 933 217 954 q 240 903 240 911 q 246 888 240 896 q 249 876 249 882 q 243 841 249 867 q 238 804 238 815 q 233 747 238 781 q 231 654 231 725 q 226 590 231 599 q 210 583 219 574 q 204 629 204 589 z "},"∞":{"ha":936,"x_min":36,"x_max":900,"o":"m 574 328 q 622 319 581 328 q 671 310 663 310 q 701 307 694 310 q 726 304 715 304 q 790 318 769 304 q 825 356 808 331 q 842 400 842 381 q 822 429 842 421 q 696 439 803 439 q 643 435 651 439 q 611 428 638 431 q 519 404 567 422 q 483 385 483 392 q 522 349 483 369 q 574 328 560 328 m 322 439 q 297 457 322 439 q 250 486 272 475 q 192 497 228 497 q 171 494 182 497 q 129 474 154 489 q 97 451 104 460 q 83 408 83 435 q 88 393 83 397 q 120 369 97 382 q 160 354 143 357 q 189 351 176 351 q 299 369 242 351 q 354 388 344 385 q 372 399 372 393 q 322 439 372 403 m 164 542 q 201 544 200 544 q 242 538 217 544 q 363 478 310 521 q 400 453 388 458 q 428 433 417 444 q 456 422 443 418 q 458 425 458 422 q 486 436 458 429 q 597 468 582 460 q 714 493 632 488 q 743 494 725 494 q 790 486 761 494 q 858 458 839 471 q 892 413 876 444 q 900 386 900 396 q 889 350 900 375 q 785 274 869 307 q 703 256 744 257 l 692 256 q 536 281 586 256 q 503 294 506 294 q 428 350 489 294 l 414 361 l 372 351 q 289 329 321 339 q 178 313 232 313 q 86 335 110 313 q 36 439 36 382 q 44 472 36 456 q 57 490 54 490 q 82 507 61 490 q 164 542 118 536 z "},"≠":{"ha":600,"x_min":43,"x_max":561,"o":"m 403 672 q 419 675 407 675 q 449 669 438 675 q 461 644 461 664 q 446 604 461 625 q 410 549 410 554 q 428 547 410 544 q 501 553 438 550 l 536 553 q 558 546 557 553 q 550 525 561 539 q 531 515 543 517 q 460 508 519 513 l 379 503 l 368 486 l 290 353 q 297 351 290 351 q 397 360 311 351 q 511 368 483 368 q 531 365 528 368 q 526 344 533 358 l 519 328 l 453 325 q 328 317 400 324 q 274 308 283 311 q 256 296 265 306 q 213 232 244 283 q 179 176 182 181 q 153 133 160 147 q 100 76 129 93 q 64 74 71 60 q 60 88 60 79 q 76 115 60 99 q 105 154 90 132 q 138 208 119 176 q 167 254 157 239 q 197 306 197 303 q 188 307 197 307 q 101 300 171 307 q 71 299 88 299 q 49 304 53 299 q 43 318 43 310 q 75 338 43 335 q 154 340 93 338 q 219 347 215 343 q 251 397 224 353 q 278 443 278 442 q 290 472 278 444 q 303 500 303 499 l 300 500 q 294 499 297 500 q 288 496 290 497 q 240 490 279 493 q 156 484 200 486 q 106 481 113 482 q 79 478 83 478 q 60 485 64 478 q 56 496 56 490 q 88 513 56 507 q 215 526 119 519 q 316 538 300 533 q 340 560 332 542 q 364 606 358 597 q 390 653 388 646 q 403 672 397 669 z "},"☺":{"ha":814,"x_min":40,"x_max":775,"o":"m 117 560 q 115 574 119 574 q 101 535 110 574 q 100 507 97 507 q 117 560 108 510 m 135 621 l 136 628 l 136 631 q 126 613 135 631 q 119 594 118 596 q 124 597 121 593 q 130 608 126 601 q 135 621 133 615 m 146 647 l 213 738 q 200 731 211 738 q 163 690 185 721 q 142 649 142 660 q 146 647 142 640 m 511 743 q 455 759 503 747 q 396 771 407 771 q 289 736 339 761 q 219 689 244 714 q 136 542 174 643 q 107 417 126 517 q 100 365 100 385 q 113 311 100 339 q 164 249 124 288 q 199 217 185 229 q 229 195 213 206 q 252 181 246 185 q 283 167 258 178 q 318 151 308 156 q 413 131 364 131 l 429 131 q 474 140 457 132 q 560 193 492 149 q 614 235 597 218 q 651 286 631 251 q 689 369 682 336 q 696 398 690 376 q 703 429 701 419 q 710 481 710 464 q 692 563 710 513 q 608 674 661 649 q 581 692 586 686 q 511 743 544 728 m 329 825 q 363 828 346 828 q 485 811 449 828 q 574 769 546 786 q 650 703 601 751 q 718 626 700 654 q 725 615 721 622 q 732 604 729 608 q 736 597 735 600 q 763 532 750 579 q 775 447 775 485 q 761 343 775 413 q 733 246 747 274 q 701 192 722 221 q 665 154 679 163 q 533 96 594 108 q 414 75 453 76 q 386 74 403 74 q 335 82 368 74 q 238 114 267 100 q 207 126 217 124 q 138 189 183 135 q 42 451 53 294 q 41 463 42 456 q 40 472 40 469 q 106 683 40 593 q 156 736 122 707 q 217 779 190 765 q 256 800 250 794 q 329 825 269 810 m 238 569 q 257 574 246 574 q 279 568 274 574 q 289 538 289 558 q 267 494 289 494 q 242 504 258 494 q 221 522 226 514 q 214 542 214 533 q 238 569 214 558 m 542 522 q 552 530 546 525 q 563 538 558 535 q 572 544 567 542 q 583 547 578 547 q 598 536 588 547 q 611 517 608 525 q 613 504 613 514 q 599 465 613 475 q 583 461 592 461 q 543 479 564 461 q 526 503 526 496 q 542 522 526 510 m 267 346 q 283 361 267 361 q 314 326 296 361 q 375 272 331 292 q 438 261 397 261 q 503 274 476 261 q 547 306 525 283 q 572 344 568 329 q 579 356 575 353 q 588 354 583 358 q 593 342 592 350 q 588 311 596 326 q 511 238 558 261 q 439 221 478 221 q 311 271 354 221 q 281 314 296 289 q 267 346 267 339 z "},"☻":{"ha":778,"x_min":40,"x_max":736,"o":"m 689 369 q 694 375 694 369 q 689 379 694 379 q 683 374 681 379 q 689 369 685 369 m 663 403 q 671 432 671 424 q 668 438 671 438 q 636 413 661 438 q 614 382 614 390 q 633 374 614 376 l 640 374 q 650 377 647 374 q 658 393 653 381 q 660 398 660 396 q 663 403 661 400 m 635 503 q 595 467 629 503 q 558 422 561 432 q 565 408 557 418 q 579 399 574 399 q 617 439 583 399 q 646 488 646 475 q 635 503 646 503 m 615 539 q 613 544 615 544 q 578 515 606 544 q 538 458 538 468 q 540 456 538 456 q 567 481 547 456 q 601 519 583 501 q 615 539 615 531 m 536 511 l 549 525 q 572 553 561 539 q 583 572 583 567 q 582 574 583 574 q 547 546 574 574 q 521 508 521 518 q 524 499 521 499 q 536 511 526 497 m 572 624 q 567 635 572 635 q 540 614 558 635 q 521 579 521 593 q 525 564 521 564 q 552 590 532 564 q 572 624 572 615 m 558 676 q 554 683 558 683 q 547 676 550 683 q 546 667 543 669 q 553 667 549 664 q 558 676 558 671 m 519 735 q 401 742 503 742 q 364 740 371 742 q 274 704 328 733 q 178 639 221 675 q 144 606 153 618 q 119 563 135 593 q 89 490 94 513 q 81 422 83 468 l 81 397 q 89 328 81 361 q 150 210 111 242 q 186 181 175 189 q 255 145 215 156 q 367 131 294 135 q 406 129 383 129 q 465 140 431 129 q 564 182 550 168 q 570 188 565 183 q 583 199 575 192 q 597 211 590 206 q 644 265 621 231 q 667 313 667 299 q 665 317 667 315 q 636 324 661 321 q 571 342 592 329 q 510 410 540 360 q 471 507 481 460 q 465 558 465 531 q 513 697 465 628 q 529 726 529 722 q 519 735 529 731 m 297 767 q 407 786 364 786 l 435 786 q 539 771 504 785 l 574 757 l 590 718 q 653 581 606 681 q 718 435 701 481 q 735 379 731 399 q 736 360 736 371 q 721 307 736 347 q 625 173 690 233 q 493 96 560 113 q 472 90 492 96 q 442 82 453 85 q 350 71 404 71 q 268 81 297 71 q 153 140 197 103 q 76 240 108 176 q 40 403 40 314 q 42 458 40 438 q 47 488 44 479 q 57 514 50 496 q 69 549 64 532 q 156 683 92 618 q 297 767 211 740 m 251 590 q 271 582 263 594 q 276 535 276 572 l 276 503 q 272 428 276 436 q 247 429 265 415 q 236 499 239 435 q 235 518 236 506 q 235 535 235 531 q 251 590 235 585 m 494 319 q 522 340 511 342 q 533 318 532 339 l 533 308 q 517 279 533 294 q 392 225 458 225 l 381 225 q 317 240 356 228 q 267 261 278 253 q 254 286 254 272 q 264 304 254 300 q 299 297 274 308 q 383 276 344 276 q 419 279 394 276 q 467 290 456 285 q 494 319 478 296 z "},"☼":{"ha":1194,"x_min":43,"x_max":1161,"o":"m 472 975 q 483 981 474 982 q 499 972 493 981 q 525 908 508 961 q 543 828 542 854 q 544 817 543 824 q 544 807 544 810 q 540 788 544 793 q 519 779 535 782 q 506 779 510 776 q 497 794 503 782 q 467 936 467 867 q 472 975 467 956 m 699 964 q 712 972 703 974 q 725 960 721 971 q 731 929 731 949 q 711 814 731 896 q 685 765 700 765 q 674 768 678 765 q 665 796 664 774 q 699 964 678 914 m 153 826 q 160 840 153 833 q 174 846 167 847 q 258 764 178 844 q 338 674 338 685 q 317 650 338 650 q 253 704 308 650 q 174 789 197 758 q 153 826 153 817 m 1010 738 q 1027 742 1022 744 q 1032 721 1032 739 l 1032 700 l 981 672 q 953 657 971 667 q 922 640 935 647 q 901 629 908 633 q 858 614 876 614 q 840 631 840 614 q 858 658 840 646 q 939 701 876 671 q 1010 738 1003 733 m 608 399 q 645 412 631 399 q 660 446 660 425 q 651 483 660 461 q 633 513 643 506 q 611 518 628 518 q 561 506 589 518 q 497 432 497 478 q 513 382 497 410 q 567 326 531 344 q 600 319 579 319 q 699 369 663 319 q 732 447 732 415 q 717 501 732 468 q 693 541 703 532 q 651 564 683 550 q 608 576 625 576 q 578 574 606 576 q 439 433 458 558 q 432 376 432 394 q 443 335 432 351 q 482 300 454 319 q 558 265 507 282 q 635 247 608 247 q 690 263 657 247 q 742 297 724 279 q 796 440 796 356 q 793 471 796 451 q 756 555 786 513 q 692 614 725 597 q 665 631 667 628 q 633 649 660 640 q 588 658 607 658 q 490 638 526 658 q 461 618 476 631 q 446 601 446 606 q 429 571 446 599 q 394 501 415 550 q 365 429 372 453 q 360 396 360 404 q 381 333 360 374 q 413 283 399 299 q 463 249 428 268 q 540 222 511 222 q 550 228 550 222 q 540 232 550 232 q 461 269 513 232 q 410 319 424 297 q 396 369 396 340 q 399 400 396 378 q 431 518 411 481 q 499 594 461 569 q 599 619 529 614 q 618 621 606 621 q 664 608 635 621 q 756 511 728 583 q 768 447 768 481 q 751 379 768 411 q 686 305 726 332 q 604 278 646 278 q 554 289 575 278 q 490 349 515 308 q 465 429 465 389 q 499 513 465 478 q 593 561 532 547 q 611 564 604 564 q 690 475 668 564 q 694 442 694 456 q 658 372 694 399 q 607 360 644 360 q 565 369 576 360 q 540 419 540 389 q 555 461 540 443 q 593 481 569 479 q 621 468 615 481 q 621 442 626 454 q 594 431 614 429 q 577 430 581 432 q 574 421 574 428 q 608 399 574 399 m 508 697 q 572 706 542 706 q 607 704 593 706 q 724 683 688 701 q 797 608 760 664 q 849 507 829 561 q 857 468 857 481 q 854 439 857 464 q 819 311 843 363 q 797 273 808 286 q 757 232 786 260 q 690 178 713 192 q 624 158 667 165 l 576 150 l 529 164 q 336 306 381 203 q 321 389 321 340 l 321 417 q 322 463 321 447 q 324 490 322 478 q 328 507 326 503 q 337 524 331 511 q 349 547 343 536 q 401 626 367 585 q 450 668 436 668 q 456 674 456 668 q 508 697 456 682 m 51 543 q 71 549 58 549 q 111 539 86 549 q 197 514 165 521 q 256 488 256 501 q 247 464 256 481 q 238 438 238 444 q 231 431 238 431 q 165 457 219 431 q 86 493 99 489 q 57 510 71 499 q 43 529 43 522 q 51 543 43 538 m 932 438 q 971 436 944 450 q 1036 415 981 431 q 1106 392 1076 404 q 1139 378 1135 379 q 1147 344 1161 374 q 1126 329 1140 329 q 1090 340 1115 329 q 972 379 1032 365 q 938 395 951 383 q 924 419 924 407 q 932 438 924 429 m 868 263 q 874 279 868 274 q 885 285 879 285 q 938 250 894 285 q 999 199 982 211 q 1022 172 1019 183 q 1024 164 1024 169 q 1003 136 1024 140 l 999 136 q 964 163 990 136 q 911 210 939 188 q 876 239 879 236 q 868 263 868 247 m 271 265 q 304 268 292 282 q 308 258 308 264 q 285 230 308 249 q 190 158 263 211 q 126 119 136 119 q 119 121 122 119 q 106 135 106 126 q 171 199 106 154 q 229 242 182 206 q 254 256 246 256 q 271 265 261 256 m 711 136 q 715 149 711 144 q 725 153 719 153 q 771 102 744 153 q 797 38 797 51 q 811 -8 797 26 q 824 -51 824 -46 q 821 -67 824 -53 q 810 -89 813 -87 l 807 -89 q 795 -78 803 -89 q 780 -50 788 -67 q 766 -17 772 -33 q 753 16 760 0 q 746 36 747 32 q 711 136 711 115 m 458 89 q 472 119 467 113 q 492 132 478 126 q 508 114 508 132 q 490 51 508 97 q 465 -17 474 10 q 447 -51 458 -36 q 425 -65 435 -65 l 424 -65 q 414 -46 414 -64 q 429 8 414 -22 q 446 49 446 42 q 458 89 446 54 z "},"♀":{"ha":683,"x_min":40,"x_max":644,"o":"m 404 704 q 374 712 392 707 q 340 720 356 717 q 310 724 325 724 q 256 715 289 724 q 177 683 201 701 q 131 619 153 665 q 101 540 117 592 q 86 467 86 488 q 113 381 86 438 q 171 288 140 324 q 281 217 211 239 q 361 204 322 204 q 442 218 406 204 q 489 238 482 232 q 565 321 528 264 q 597 401 592 364 q 601 443 601 425 q 597 490 601 461 q 592 529 593 518 q 518 657 583 604 q 404 704 481 688 m 314 789 q 361 793 339 793 q 467 767 408 793 q 525 744 500 751 q 563 719 553 735 q 583 692 572 703 q 622 603 601 675 q 644 449 644 524 q 615 299 644 364 q 603 267 603 274 q 564 224 603 257 q 494 176 525 192 q 414 151 454 154 l 375 149 l 375 100 l 375 83 q 382 38 375 44 q 429 28 389 32 q 490 17 475 24 q 501 10 500 14 q 500 -6 503 7 q 499 -12 500 -8 q 498 -19 499 -17 q 497 -22 497 -21 l 496 -25 q 440 -28 471 -26 l 385 -28 l 388 -100 q 392 -210 392 -169 q 369 -296 392 -292 l 368 -296 q 349 -204 350 -296 q 348 -165 349 -187 q 345 -118 347 -143 q 343 -83 343 -93 l 340 -29 l 281 -29 q 210 -19 221 -29 q 200 -3 200 -11 q 306 29 200 19 l 338 32 q 336 87 336 50 q 335 142 336 124 l 318 143 q 165 210 242 151 q 112 267 147 224 q 76 319 76 311 q 65 354 76 328 q 49 428 57 375 q 40 510 40 482 q 41 516 40 513 q 42 521 42 519 q 44 540 43 525 q 48 567 46 554 q 53 585 50 579 q 58 603 58 596 q 78 653 58 614 q 110 706 97 692 q 218 761 143 746 q 276 778 257 768 q 314 789 294 786 z "},"♂":{"ha":894,"x_min":40,"x_max":853,"o":"m 424 747 q 354 760 390 760 q 203 696 264 760 q 122 518 146 638 q 119 472 119 499 q 126 394 119 413 q 133 376 126 392 q 142 351 139 361 q 224 225 163 290 q 278 181 254 193 q 353 164 303 169 q 435 156 414 156 q 486 169 458 156 q 588 263 540 194 q 649 400 636 331 q 654 454 654 428 q 635 544 654 497 q 608 601 615 594 q 603 608 607 603 q 597 617 600 613 q 592 624 593 621 q 524 697 572 656 q 457 738 475 738 q 424 747 447 738 m 831 982 q 849 986 844 989 q 853 969 853 983 q 844 949 853 960 q 801 906 835 938 l 751 858 l 774 836 q 796 808 796 814 q 786 788 796 803 q 767 772 775 772 q 733 796 753 772 l 713 821 l 657 767 q 601 707 601 711 q 625 664 601 699 q 678 560 665 600 q 692 460 692 521 q 675 346 692 403 q 582 160 638 208 q 414 93 504 93 q 278 110 349 93 q 168 153 208 128 q 78 267 115 186 q 40 431 42 349 l 40 440 q 60 574 40 521 q 129 685 79 626 q 230 772 178 742 q 361 815 282 801 q 413 822 394 822 q 450 817 428 822 q 497 801 483 808 q 536 772 511 794 q 572 749 564 749 q 583 756 576 749 q 633 802 593 767 q 681 842 672 838 q 685 846 685 844 q 661 875 685 850 q 635 911 635 903 q 642 926 635 917 q 656 936 647 936 q 692 911 667 936 q 722 885 718 885 q 772 929 728 885 q 831 982 817 974 z "},"♠":{"ha":713,"x_min":43,"x_max":674,"o":"m 142 765 q 133 767 136 768 q 128 764 129 767 q 126 754 126 761 q 128 748 126 749 q 138 750 129 747 q 142 765 160 758 m 89 826 q 101 835 93 835 q 201 793 119 835 q 267 759 253 768 q 293 733 281 750 q 322 688 322 699 q 319 675 322 683 q 289 639 314 660 q 118 501 176 550 q 81 475 88 475 q 69 467 78 475 q 58 461 64 461 q 43 508 43 461 q 49 556 43 539 l 56 603 q 57 615 57 603 q 64 678 57 633 q 79 778 75 744 q 89 826 85 819 m 572 371 q 565 375 572 375 q 557 371 557 375 q 565 365 557 365 q 572 371 572 365 m 608 371 q 614 375 614 371 q 607 379 614 379 q 581 369 581 376 q 587 367 582 367 q 600 369 592 368 l 608 371 m 308 404 q 313 403 310 403 q 311 408 314 406 q 308 407 310 408 q 308 404 307 406 m 589 432 q 592 425 585 425 q 599 429 599 425 q 596 433 599 432 q 589 432 590 436 m 550 643 q 576 660 572 660 q 609 636 585 660 q 633 606 633 613 q 641 591 633 600 q 649 574 649 582 q 657 529 649 565 q 674 406 674 454 q 669 382 674 385 q 661 350 661 374 q 647 313 661 325 q 615 310 622 292 q 602 319 613 318 q 538 324 592 321 q 513 324 533 324 q 478 325 493 325 q 100 317 347 325 q 71 325 72 315 q 81 349 68 336 q 90 374 92 363 q 94 393 88 386 q 233 464 103 400 q 394 540 364 528 q 459 578 421 551 q 506 611 497 606 q 550 643 529 625 m 164 96 q 131 151 135 151 q 131 144 129 151 q 139 124 133 138 q 153 89 144 110 q 186 28 164 63 q 214 -6 208 -6 l 215 -4 q 209 20 217 1 q 197 39 201 39 q 164 96 192 39 m 76 240 q 110 250 85 253 q 143 248 125 249 q 169 247 161 247 q 190 240 178 246 q 215 222 201 235 q 322 174 249 193 q 388 153 351 165 q 419 138 415 142 q 424 114 424 133 q 407 76 424 100 q 313 -12 374 31 q 251 -47 264 -47 q 228 -57 240 -47 q 211 -65 217 -65 q 189 -43 203 -65 q 163 -11 178 -26 q 121 63 147 4 q 83 168 94 121 q 71 225 71 218 q 76 240 71 232 z "},"♣":{"ha":933,"x_min":40,"x_max":892,"o":"m 379 324 q 367 326 378 326 q 346 324 356 326 q 307 307 335 321 q 246 244 256 282 q 243 224 243 231 q 283 122 243 169 q 307 110 289 117 q 338 104 325 104 q 380 112 351 104 q 415 125 408 119 q 444 181 432 140 q 456 264 456 222 l 456 292 l 436 297 q 379 324 388 313 m 631 315 q 579 329 607 328 l 554 332 l 539 317 q 508 297 525 303 l 493 292 l 493 240 q 494 204 493 215 q 496 189 494 193 q 503 177 497 185 q 513 161 508 169 q 589 92 532 122 q 632 79 615 79 l 646 79 q 683 88 672 81 q 710 118 694 94 q 733 186 733 157 q 714 229 733 194 q 631 315 681 290 m 511 342 q 490 336 506 350 q 488 328 482 329 q 493 329 490 328 q 508 335 503 332 q 511 342 513 339 m 122 333 q 110 339 119 335 q 99 344 101 343 q 93 342 96 346 q 132 322 93 333 q 142 322 142 319 q 122 333 143 326 m 460 354 q 439 349 460 363 q 432 339 431 342 q 440 335 436 335 q 451 343 443 335 q 460 354 460 351 m 415 354 l 415 365 q 411 363 414 368 q 411 353 408 354 q 415 354 414 353 m 93 388 q 85 400 92 388 q 75 413 78 413 q 72 410 72 413 q 82 393 72 404 q 96 382 92 382 q 97 385 97 382 q 93 388 97 388 m 551 399 q 547 417 551 418 q 540 407 544 415 q 535 386 535 393 q 532 369 535 381 q 531 360 531 363 q 535 360 532 358 q 546 376 540 363 q 551 399 551 389 m 538 440 q 535 444 539 444 q 526 439 531 444 q 524 433 522 433 q 528 435 525 433 q 538 440 536 438 m 453 469 q 425 464 453 478 q 386 425 390 446 q 389 415 383 413 q 411 433 394 417 q 443 460 438 457 q 453 469 453 464 m 249 507 q 203 513 231 513 q 101 476 122 513 q 97 450 97 468 q 107 413 97 413 q 115 401 110 413 q 138 370 121 388 q 169 346 154 353 q 221 335 182 339 q 247 333 231 333 q 315 350 276 333 q 342 368 342 361 q 340 379 342 369 q 338 397 338 389 l 338 406 q 332 439 339 432 q 322 453 325 447 q 290 483 317 463 q 249 507 263 503 m 803 511 q 751 524 778 524 q 704 514 728 524 q 673 498 685 506 q 642 481 661 490 q 595 451 601 460 q 586 413 589 443 l 585 378 l 617 367 q 722 346 682 346 q 772 354 750 346 q 831 395 806 365 q 857 451 857 425 q 856 456 857 453 q 856 460 856 458 q 838 487 854 472 q 803 511 822 501 m 436 539 q 424 558 426 558 q 421 554 421 556 q 423 544 421 553 q 425 532 425 535 q 429 517 426 524 q 435 508 432 511 q 442 507 439 506 q 436 539 449 513 m 688 642 q 690 629 688 629 q 694 638 693 629 q 692 656 694 647 q 686 665 690 665 q 685 660 685 664 q 686 651 685 657 q 688 642 688 644 m 367 708 q 340 717 350 717 q 306 711 339 717 q 240 682 263 703 q 221 655 231 672 q 211 629 211 638 q 222 589 211 604 q 233 574 226 583 q 293 525 250 547 q 354 479 328 508 l 367 465 q 381 476 371 468 q 396 488 390 483 q 404 507 407 494 q 401 554 401 526 q 407 635 401 601 q 408 671 413 663 q 367 708 399 692 m 638 713 q 564 740 610 740 q 542 738 556 740 q 473 692 501 729 q 444 610 444 656 q 458 553 444 581 q 480 522 469 531 q 514 506 490 513 q 553 490 540 497 q 572 485 567 483 q 589 496 576 486 q 658 631 654 558 l 658 649 q 638 713 658 692 m 547 772 q 586 775 561 775 q 643 758 611 774 q 692 727 678 743 q 713 675 707 711 q 715 650 715 656 q 686 574 715 617 q 679 561 679 563 q 682 558 679 558 q 706 567 686 558 q 761 575 724 575 q 822 563 799 575 q 865 530 846 550 q 889 494 885 510 q 892 471 892 486 q 864 386 892 429 q 761 293 818 310 q 738 282 739 286 l 742 275 q 760 230 749 268 q 771 158 771 192 q 764 118 771 132 q 726 74 750 88 q 621 36 667 36 q 536 63 585 36 q 489 100 501 82 q 476 122 479 115 q 464 121 472 136 q 433 86 458 110 q 393 56 407 63 q 343 44 368 44 q 301 51 325 44 q 233 93 260 64 q 201 158 206 122 l 201 168 q 219 254 201 210 l 228 278 l 188 281 q 142 283 143 283 q 136 286 136 283 q 133 288 136 290 l 129 288 q 89 299 111 288 q 67 319 85 301 q 49 349 54 333 q 42 407 44 365 q 40 429 40 417 q 50 458 40 439 q 114 529 78 513 q 164 543 136 539 l 196 549 l 189 567 q 183 601 183 582 l 183 618 q 202 688 186 664 q 263 739 218 713 q 331 760 296 760 q 372 750 350 760 q 409 724 389 743 q 436 690 429 706 l 450 708 q 493 747 464 728 q 547 772 522 765 z "},"♥":{"ha":667,"x_min":42,"x_max":628,"o":"m 497 324 q 497 328 497 325 l 499 331 q 496 333 499 333 q 458 317 492 333 q 432 299 432 301 q 435 297 432 297 q 457 303 442 297 q 482 304 479 308 q 490 301 488 297 q 492 304 490 303 q 497 324 494 308 m 539 447 q 533 450 539 450 q 501 439 526 450 q 471 422 476 428 q 467 418 467 418 l 475 418 q 516 430 493 421 q 539 447 539 439 m 551 501 q 547 519 553 519 q 542 515 546 519 q 477 480 536 510 q 413 450 418 450 q 404 444 404 450 q 408 443 404 443 q 472 460 432 443 q 526 478 503 472 l 550 483 l 551 501 m 175 586 q 144 592 158 592 q 122 589 139 592 q 99 543 101 585 q 99 528 97 532 q 106 526 100 525 q 153 551 117 529 q 189 578 189 572 q 175 586 189 582 m 568 568 q 572 592 574 589 q 571 593 572 593 q 492 558 565 593 q 396 514 418 519 q 364 499 381 510 q 340 489 350 489 q 324 503 329 489 q 303 533 317 518 q 285 549 290 549 q 272 536 278 549 q 251 517 268 525 q 240 501 229 504 q 268 510 243 501 q 292 510 292 518 q 284 488 292 499 q 268 471 276 476 q 244 456 260 465 q 224 443 228 446 q 178 425 196 425 q 165 429 169 425 q 160 440 158 436 q 174 450 161 443 l 188 460 l 167 460 q 138 474 138 460 q 161 496 138 485 q 181 510 179 504 q 165 510 182 515 q 132 495 151 506 q 113 481 113 485 q 119 461 113 475 q 129 446 126 447 q 146 418 132 446 q 308 211 179 353 q 400 107 392 118 q 410 99 404 101 q 419 99 415 96 q 424 108 424 101 q 443 157 424 118 q 476 257 476 226 q 475 264 476 263 q 471 265 474 265 q 456 255 464 265 q 444 232 447 244 q 426 203 440 219 q 399 186 411 186 q 386 192 392 186 q 374 199 379 199 q 364 208 368 199 q 361 225 360 218 q 386 243 364 232 q 406 258 406 253 q 403 260 406 260 q 386 256 399 260 q 351 250 368 250 q 331 261 331 250 q 346 282 331 269 l 361 297 l 347 294 q 338 293 343 294 q 331 291 333 292 q 325 290 328 290 q 320 292 322 290 q 317 299 318 294 q 314 307 314 304 q 363 342 314 321 q 397 363 397 358 q 392 365 397 365 q 290 326 378 365 q 257 317 271 317 q 244 328 244 317 q 314 367 244 339 q 383 403 383 393 l 381 403 q 286 376 349 403 q 261 369 269 369 q 247 379 247 369 q 307 418 247 389 q 385 461 349 439 q 451 500 421 483 q 522 536 490 518 q 554 549 544 549 q 568 568 563 549 m 582 635 q 574 640 582 644 l 554 629 q 542 622 550 626 q 529 615 533 618 q 526 611 525 613 q 556 618 528 610 q 582 635 582 628 m 542 711 q 514 719 529 719 q 444 678 483 719 q 413 628 419 650 q 396 574 399 581 q 388 543 385 543 q 413 553 393 543 q 433 569 433 563 q 432 572 433 571 q 428 589 428 576 q 426 610 429 601 q 425 619 425 614 q 458 640 425 631 q 554 681 542 665 q 542 711 568 694 m 483 757 q 533 767 507 767 q 572 758 556 767 q 600 740 592 750 q 618 704 608 729 q 628 653 628 679 q 617 576 628 622 q 601 507 604 526 q 591 474 600 496 q 582 440 582 453 q 578 419 582 431 q 511 218 568 394 q 444 39 464 58 q 426 28 433 28 q 336 113 407 28 q 310 143 326 124 q 292 167 294 163 q 283 175 288 171 q 275 183 279 179 l 271 188 q 232 232 267 189 q 178 291 224 242 q 117 363 133 340 q 90 396 115 364 q 56 454 71 417 q 42 521 42 492 l 42 529 q 67 592 47 569 q 109 620 75 601 q 157 642 143 639 l 163 642 q 263 615 213 642 q 307 583 281 606 l 335 561 q 347 585 336 561 q 417 699 376 649 q 455 742 446 735 q 483 757 464 750 z "},"♦":{"ha":806,"x_min":43,"x_max":764,"o":"m 215 256 q 222 263 217 254 q 233 292 238 288 q 221 275 229 292 q 215 256 213 258 m 499 338 q 494 360 499 356 l 493 360 q 471 349 486 360 q 456 332 456 338 q 478 302 456 326 q 506 278 500 278 q 507 285 507 278 q 504 301 507 293 q 499 338 499 321 m 336 356 q 319 368 324 368 q 300 340 314 368 q 286 304 286 313 q 294 306 286 300 q 318 322 303 311 l 347 344 l 336 356 m 578 542 q 555 544 567 543 q 536 547 543 546 q 525 547 529 547 q 513 533 513 547 q 519 494 513 515 q 531 472 525 472 q 561 488 536 472 q 585 503 569 492 q 606 517 601 514 q 626 532 626 529 q 578 542 626 536 m 454 514 q 453 526 454 518 q 451 537 451 535 q 450 544 451 539 q 447 549 449 549 q 440 551 444 549 q 431 553 436 553 q 417 553 425 553 q 392 551 397 553 q 382 538 388 549 q 351 447 351 471 q 372 414 351 436 q 403 392 392 392 q 441 413 413 392 q 469 442 469 435 q 463 468 469 450 q 454 514 454 490 m 269 557 q 233 553 233 557 q 262 524 233 547 q 297 500 290 500 q 313 522 301 500 q 325 550 325 543 q 269 557 325 557 m 444 604 q 447 621 447 607 q 447 633 447 624 q 446 647 446 642 l 443 688 l 431 661 q 418 628 418 636 q 413 617 418 625 q 410 606 408 610 q 425 601 413 601 q 444 604 438 600 m 419 783 q 423 804 421 797 q 431 816 425 811 q 447 821 436 821 q 464 819 457 821 q 485 800 478 815 q 499 675 499 761 l 499 660 q 501 607 499 613 q 575 596 503 601 q 655 588 594 594 q 743 582 715 582 q 760 580 757 585 q 763 558 764 575 q 746 522 761 535 q 613 435 714 493 q 547 393 567 408 l 535 383 l 543 346 q 574 213 561 247 q 586 169 586 181 q 578 139 586 158 q 560 117 567 117 q 533 149 550 117 q 506 193 515 181 q 447 256 489 215 q 399 296 404 296 q 376 286 389 296 q 331 256 365 276 q 285 225 297 235 q 261 208 275 217 q 238 192 247 200 q 217 172 228 185 q 190 154 200 154 q 176 156 182 154 q 143 179 143 160 q 144 183 143 181 q 151 208 150 201 q 215 336 153 222 q 224 355 217 339 q 236 381 232 371 q 251 415 251 411 q 219 450 251 424 q 113 553 182 483 q 43 628 43 624 q 47 632 43 632 q 64 638 50 632 q 81 642 72 642 q 114 636 92 642 q 185 625 156 626 q 228 617 219 622 q 297 610 235 613 l 329 610 q 361 618 361 610 q 365 631 361 628 q 394 692 375 636 q 419 783 414 747 z "},"♪":{"ha":649,"x_min":42,"x_max":608,"o":"m 135 178 q 131 180 135 179 q 122 179 126 181 q 115 176 117 178 q 112 167 110 172 q 121 161 114 161 q 135 178 135 161 m 547 725 q 560 733 553 725 q 574 753 567 740 q 582 767 581 765 q 600 778 590 778 q 608 764 608 778 q 564 661 608 719 q 537 638 553 647 q 510 624 521 628 q 474 615 500 621 q 436 606 447 608 q 342 596 399 596 q 275 604 294 596 q 256 611 258 611 q 254 607 254 611 q 269 535 254 581 q 282 403 282 492 q 278 344 282 364 q 265 279 274 324 q 239 195 260 246 q 199 121 218 144 q 157 86 183 101 q 113 71 131 71 q 58 97 78 71 q 42 146 42 119 q 68 207 42 181 q 124 235 89 229 q 139 236 129 236 q 190 217 178 236 q 199 211 194 211 q 206 218 203 211 q 214 243 210 225 q 221 268 218 261 q 236 406 236 324 q 226 536 236 497 q 210 658 210 603 q 213 679 210 674 q 242 678 222 699 q 340 647 267 651 q 375 646 353 646 q 519 692 453 646 q 538 714 538 704 q 547 725 538 725 z "},"♫":{"ha":838,"x_min":40,"x_max":799,"o":"m 150 238 q 126 239 143 244 q 107 203 107 231 q 121 174 107 174 q 139 185 128 174 q 156 221 156 201 q 150 238 156 232 m 746 425 q 727 421 735 417 q 717 439 719 425 l 715 454 l 704 440 q 706 407 682 414 q 721 406 710 406 q 752 413 739 406 q 765 429 765 419 q 751 429 765 438 l 746 425 m 696 339 q 624 367 649 339 q 599 446 599 396 q 603 488 599 471 q 642 601 608 506 q 653 649 653 635 q 661 665 653 661 q 668 675 671 669 q 643 667 661 685 q 619 649 633 656 q 547 626 604 643 q 365 588 428 589 l 324 588 l 324 554 q 305 437 324 507 q 260 315 286 367 q 222 229 247 290 q 147 132 186 140 q 135 125 135 129 q 122 121 135 121 q 88 126 107 121 q 65 139 69 132 q 53 149 61 146 q 40 185 40 153 q 82 269 40 233 q 150 304 118 304 q 188 286 169 304 l 200 272 l 225 322 q 268 431 243 357 q 290 557 288 486 q 299 633 293 628 q 375 639 304 639 q 453 646 446 639 q 463 648 456 649 q 472 650 471 647 q 485 653 475 653 q 496 656 494 653 q 515 661 499 661 q 563 672 528 661 q 606 689 599 683 q 630 703 607 690 q 680 728 653 715 q 713 742 707 742 l 714 742 q 717 729 717 739 q 707 681 717 706 q 707 663 700 665 q 713 656 714 661 q 704 650 711 651 q 669 577 693 647 q 639 464 644 507 l 639 453 q 644 421 639 436 l 653 403 l 658 422 q 681 465 665 442 q 708 493 696 488 q 738 500 721 500 q 793 458 778 500 q 799 433 799 442 q 767 371 799 407 q 696 339 736 339 z "},"♯":{"ha":750,"x_min":43,"x_max":710,"o":"m 500 506 q 504 521 504 515 q 475 531 504 531 q 447 528 450 531 l 356 525 l 267 522 l 264 508 q 243 442 264 504 q 222 372 222 379 q 292 369 222 369 q 444 375 417 369 q 485 456 463 379 q 500 506 494 490 m 282 715 q 291 729 282 722 q 306 735 300 736 q 313 710 314 733 q 286 582 310 668 q 285 557 282 558 l 521 567 q 528 583 525 569 q 547 631 529 590 q 565 676 564 671 q 610 728 569 693 q 624 733 617 735 q 632 725 632 732 q 610 674 632 718 q 575 576 575 601 q 626 571 575 571 q 696 568 679 571 q 708 564 706 567 q 707 551 710 561 q 699 532 704 536 q 668 528 693 528 q 651 528 664 528 q 629 529 639 529 q 586 531 610 531 q 564 525 564 531 q 550 485 564 515 q 518 381 518 410 q 576 376 518 376 l 632 376 l 632 363 q 620 340 632 344 q 560 333 608 336 q 503 329 503 331 q 474 267 489 310 q 444 171 444 176 q 432 156 444 164 q 410 147 419 147 l 408 147 q 400 164 400 149 q 424 285 403 226 q 436 324 436 321 q 433 329 436 326 l 424 329 q 369 328 392 329 q 313 324 353 326 q 261 322 274 322 l 207 319 l 200 299 q 192 269 197 290 q 181 232 186 249 q 169 207 175 215 q 154 185 158 196 q 135 169 146 169 q 124 183 124 169 q 156 286 124 203 q 163 310 163 304 q 152 320 163 318 q 108 322 142 322 q 51 329 60 322 q 43 340 43 338 q 71 361 43 353 q 136 369 99 369 q 163 368 154 369 l 182 367 l 189 390 q 209 456 193 401 q 225 511 225 510 l 225 513 l 226 514 q 215 518 226 518 q 206 517 211 518 q 189 516 200 517 q 168 515 178 515 q 118 514 147 514 q 71 529 72 514 q 69 538 69 532 q 84 548 69 546 q 157 553 99 550 q 240 560 236 556 q 245 570 243 563 q 247 584 247 578 q 244 590 247 590 q 239 594 239 590 q 246 599 239 599 q 257 632 250 599 q 272 688 263 664 q 282 715 282 710 z "}}}
